<svg width="128" height="150" viewBox="0 0 128 150" fill="none" xmlns="http://www.w3.org/2000/svg">
<g opacity="0.3">
<path d="M46.9805 12.6172C48.1724 12.7701 49.3574 12.9823 50.5281 13.2584C51.0942 13.3912 51.656 13.542 52.2148 13.7047C52.3601 13.7474 52.5015 13.7904 52.6468 13.8331C52.8243 13.8848 52.5054 13.7901 52.5072 13.788C52.5762 13.8135 52.6507 13.8327 52.7215 13.8562C53.0269 13.954 53.3287 14.056 53.6287 14.1602C55.8593 14.9447 58.0103 15.9552 60.042 17.1656C60.2824 17.31 60.523 17.4582 60.7637 17.6064C61.021 17.765 60.7066 17.5584 60.6764 17.5511C60.731 17.5681 60.8241 17.6464 60.8658 17.6743C61.0093 17.766 61.1488 17.8581 61.2887 17.9541C61.7723 18.2778 62.2469 18.6121 62.7147 18.9586C63.6796 19.6728 64.6071 20.4352 65.493 21.2421C65.9231 21.6329 66.3422 22.0325 66.7526 22.4465C66.9502 22.6453 67.146 22.8463 67.3401 23.0493C67.4436 23.1581 67.5471 23.2669 67.6467 23.3761C67.6985 23.4305 67.7467 23.4891 67.8002 23.5414C67.6798 23.4183 67.6028 23.321 67.7678 23.5069C68.5534 24.3849 69.2931 25.3038 69.9828 26.2603C70.6725 27.2167 71.3136 28.2047 71.8966 29.2268C72.0233 29.4492 72.1482 29.6737 72.2714 29.9002C72.3365 30.0201 72.3998 30.1421 72.4648 30.2619C72.4974 30.3218 72.5281 30.3839 72.5606 30.4438C72.6987 30.7083 72.438 30.1996 72.532 30.3836C72.7664 30.8593 72.9969 31.3353 73.2124 31.8204C74.0935 33.8024 74.7829 35.8689 75.2772 37.981C75.3046 38.0982 75.33 38.2135 75.3574 38.3306C75.3701 38.3883 75.379 38.4718 75.4016 38.5306C75.2746 38.2103 75.353 38.3016 75.3787 38.4209C75.4344 38.6884 75.4861 38.9561 75.5361 39.2261C75.6339 39.7641 75.7221 40.3049 75.7965 40.8448C75.9422 41.9114 76.0412 42.9857 76.0891 44.0604C76.1148 44.6064 76.1269 45.1555 76.127 45.7017C76.1266 45.9582 76.1241 46.2129 76.1181 46.4719C76.1155 46.6072 76.1112 46.7446 76.1069 46.882C76.1045 46.9487 76.1025 47.0194 76.1002 47.0861C76.0927 47.3041 76.1012 47.0508 76.1047 46.9742C76.0359 48.0664 75.953 49.154 75.799 50.2397C75.6451 51.3254 75.4499 52.3656 75.2022 53.4122C75.0796 53.9275 74.945 54.44 74.7983 54.9495C74.7236 55.2122 74.6409 55.4716 74.5623 55.7347C74.5697 55.7047 74.6844 55.3564 74.5963 55.6222C74.5806 55.6705 74.5649 55.7188 74.5474 55.7692C74.4986 55.9162 74.4516 56.0611 74.4007 56.2063C73.6446 58.4093 72.6557 60.5358 71.4286 62.5197C71.3869 62.5859 71.3451 62.652 71.3034 62.7181C71.1453 62.9721 71.3275 62.677 71.3541 62.6415C71.2642 62.7684 71.1829 62.9024 71.0972 63.0329C70.9239 63.2921 70.7463 63.5478 70.5644 63.7999C70.2007 64.304 69.8223 64.7957 69.4229 65.2735C69.0236 65.7513 68.613 66.2124 68.1834 66.6575C67.9968 66.8512 67.8041 67.0435 67.611 67.232C67.5018 67.339 67.3887 67.4463 67.2752 67.5498C67.2351 67.5884 67.1598 67.6769 67.1052 67.7069C67.2522 67.628 67.3252 67.5123 67.1345 67.6809C66.2281 68.4772 65.257 69.2044 64.2244 69.833C63.962 69.9919 63.6993 70.147 63.4281 70.295C63.3114 70.3596 63.1926 70.4224 63.0738 70.4851C63.021 70.513 62.7966 70.6317 63.0078 70.52C63.2436 70.3966 62.9072 70.5656 62.8883 70.575C62.3487 70.8335 61.7952 71.0658 61.2315 71.2715C60.8072 71.4244 60.3758 71.5642 59.9387 71.681C59.7307 71.7376 59.5225 71.7902 59.3139 71.839C59.2598 71.8513 59.2036 71.8619 59.1477 71.8764C59.1613 71.8733 59.564 71.7926 59.3121 71.8411C59.1862 71.8653 59.0642 71.8892 58.9382 71.9135C58.0827 72.0652 57.2131 72.1438 56.3435 72.1499C56.1389 72.1514 55.9379 72.1486 55.7365 72.1419C55.3675 72.1317 56.1246 72.1682 55.7543 72.1424C55.6336 72.1349 55.5129 72.1273 55.3939 72.1177C54.9836 72.0835 54.5759 72.0334 54.1686 71.9656C53.7614 71.8979 53.3426 71.8095 52.9364 71.7064C52.7475 71.6596 52.5579 71.605 52.3704 71.5521C52.1142 71.4776 52.7892 71.6874 52.4069 71.5647C52.3077 71.5319 52.2107 71.5009 52.1133 71.4659C51.339 71.1978 50.5866 70.8613 49.8688 70.4672C49.7037 70.3752 49.5382 70.2794 49.3746 70.1815C49.2979 70.1351 49.2251 70.0883 49.1484 70.0419C49.6563 70.3498 49.2957 70.1333 49.1728 70.0516C48.8372 69.8271 48.5142 69.5878 48.1998 69.3342C47.8854 69.0805 47.6051 68.8337 47.3228 68.5637C47.1794 68.4249 47.0356 68.2823 46.8976 68.1372C46.8352 68.0739 46.7786 68.0081 46.7184 67.9466C46.5803 67.8015 46.9943 68.2583 46.8655 68.1066C46.8261 68.059 46.7828 68.0117 46.7416 67.9662C46.2255 67.3692 45.7627 66.7266 45.3616 66.0455C45.2674 65.8831 45.175 65.7185 45.0844 65.5519C44.8997 65.2012 45.2199 65.8322 45.1057 65.5951C45.0558 65.4916 45.0079 65.3899 44.958 65.2864C44.7944 64.9281 44.644 64.5628 44.5146 64.1899C44.3852 63.817 44.2604 63.4046 44.1621 63.0037C44.136 62.9021 44.1176 62.7999 44.0915 62.6983C44.0918 62.7022 44.1781 63.1257 44.1301 62.8791C44.123 62.8405 44.1158 62.802 44.1087 62.7634C44.0668 62.5437 44.0307 62.3216 43.9984 62.0992C43.9425 61.6869 43.9041 61.2711 43.8873 60.8555C43.878 60.6488 43.8747 60.4435 43.8754 60.2379C43.8759 60.1262 43.8786 60.0164 43.8792 59.9048C43.8804 59.8479 43.8837 59.7928 43.8849 59.7359C43.8869 59.8317 43.8621 60.1254 43.8796 59.8617C43.943 58.9421 44.082 58.0319 44.3047 57.1343C44.3656 56.8962 44.4305 56.6578 44.4996 56.423C44.6165 56.0295 44.4019 56.717 44.5291 56.3285C44.578 56.1815 44.6286 56.0324 44.6813 55.8851C44.8623 55.3864 45.0657 54.8956 45.2896 54.4149C45.5135 53.9341 45.7707 53.4526 46.0435 52.9912C46.104 52.8903 46.1627 52.7914 46.2253 52.6922C46.2581 52.6366 46.2987 52.5803 46.3315 52.5247C46.1216 52.9123 46.1937 52.7379 46.2549 52.6447C46.4041 52.4266 46.5512 52.2068 46.7086 51.992C47.3288 51.1395 48.0287 50.3468 48.7886 49.6118C48.8706 49.5325 48.9565 49.4529 49.0385 49.3736C49.0879 49.3284 49.1355 49.2852 49.1849 49.24C49.3439 49.0916 48.9115 49.4802 49.0768 49.3371C49.2751 49.1639 49.4772 48.9904 49.68 48.8247C50.0913 48.4908 50.5156 48.1715 50.949 47.867C51.3824 47.5626 51.8066 47.2902 52.2511 47.024C52.6956 46.7578 53.2143 46.5324 53.661 46.2464C53.2536 46.5076 53.6196 46.2695 53.7313 46.2151C53.8372 46.1632 53.9453 46.113 54.0512 46.0611C54.3108 45.9396 54.5746 45.8216 54.8388 45.7075C55.3389 45.4954 55.8461 45.2964 56.3566 45.1147C57.3527 44.7593 58.3733 44.4606 59.4026 44.2199C59.5357 44.1872 59.6691 44.1585 59.8026 44.1297C60.077 44.0676 59.7217 44.1521 59.6923 44.1526C59.7512 44.1516 59.8374 44.1229 59.8937 44.1123C60.1609 44.0586 60.4302 44.0068 60.702 43.9605C61.2395 43.8667 61.7822 43.788 62.3241 43.7232C63.3844 43.5954 64.4535 43.5256 65.521 43.5088C66.0578 43.5011 66.5941 43.5111 67.1293 43.531C67.309 43.5375 66.9454 43.5209 66.9574 43.5238C67.0227 43.5281 67.0898 43.5304 67.1552 43.5347C67.2876 43.5412 67.4204 43.5517 67.5528 43.5582C67.8162 43.5773 68.0778 43.5985 68.3419 43.6254C70.4338 43.8303 72.4878 44.289 74.4998 44.8824C74.6734 44.9344 74.3138 44.8235 74.328 44.8282C74.3907 44.8484 74.4534 44.8686 74.5161 44.8888C74.6415 44.9293 74.7669 44.9697 74.8923 45.0101C75.1413 45.0931 75.3925 45.1778 75.64 45.2667C76.1351 45.4446 76.627 45.6306 77.1141 45.8307C78.0678 46.2208 79.0055 46.6553 79.9227 47.1268C80.8398 47.5983 81.7074 48.1366 82.5951 48.6556C82.1419 48.39 82.5223 48.6088 82.6346 48.6817C82.747 48.7545 82.8512 48.8241 82.9614 48.8951C83.178 49.0376 83.3931 49.186 83.6043 49.3348C84.0305 49.6319 84.4496 49.9375 84.8637 50.2534C86.4863 51.4921 88.0044 52.8706 89.3923 54.3639C89.4789 54.4584 89.778 54.7897 89.4243 54.3945C89.5003 54.4801 89.576 54.5619 89.6521 54.6476C89.8344 54.8516 90.0152 55.0616 90.1939 55.2699C90.519 55.6519 90.8347 56.0405 91.1412 56.4358C91.7668 57.2371 92.3595 58.0685 92.9144 58.9187C93.4693 59.769 94.0052 60.6757 94.4903 61.5866C94.5438 61.6858 94.5956 61.7872 94.6491 61.8865C94.6795 61.9447 94.7078 62.001 94.7382 62.0592C94.8365 62.2467 94.5824 61.7472 94.6771 61.939C94.7927 62.1701 94.9066 62.4034 95.0183 62.6348C95.2403 63.1037 95.4506 63.5736 95.6516 64.0502C96.4462 65.9376 97.0551 67.8894 97.5064 69.8858C97.553 70.0913 97.4377 69.5567 97.4804 69.7626C97.4937 69.8281 97.5067 69.8896 97.52 69.9551C97.5432 70.0687 97.5661 70.1783 97.5872 70.2901C97.6393 70.5618 97.6896 70.8356 97.7342 71.1118C97.817 71.6119 97.8885 72.1169 97.95 72.6208C98.0766 73.6713 98.1467 74.7285 98.1695 75.7857C98.1818 76.3602 98.1781 76.9322 98.1666 77.5048C98.1582 77.7835 98.1421 78.0629 98.1376 78.3412C98.1423 77.9004 98.1356 78.3649 98.1294 78.479C98.1195 78.6442 98.1099 78.8134 98.0982 78.9808C98.0178 80.1465 97.8899 81.3083 97.7201 82.4638C97.3768 84.7792 96.8563 87.0682 96.2003 89.3157C96.1159 89.6027 96.0293 89.8879 95.9427 90.1731C95.9165 90.2595 95.8433 90.4692 95.969 90.0868C95.9519 90.141 95.9365 90.1932 95.9194 90.2475C95.8676 90.4065 95.818 90.5673 95.7644 90.7284C95.5775 91.298 95.3824 91.8645 95.1791 92.4276C94.7774 93.5399 94.3469 94.6389 93.8882 95.7286C92.0481 100.097 89.7832 104.282 87.2894 108.318C86.9769 108.822 86.6641 109.322 86.3452 109.82C86.2754 109.928 86.2077 110.037 86.1361 110.147C86.0123 110.34 86.3193 109.864 86.1973 110.054C86.157 110.114 86.117 110.178 86.0767 110.238C85.918 110.485 85.7572 110.729 85.5946 110.976C84.8344 112.133 84.0576 113.281 83.2639 114.414C81.6167 116.768 79.8985 119.073 78.1151 121.327C74.5628 125.821 70.7597 130.115 66.7642 134.225C64.8381 136.207 62.8781 138.16 60.8297 140.021C60.5405 140.284 60.4143 140.851 60.4428 141.218C60.4761 141.619 60.696 142.086 61.0218 142.335C61.3476 142.583 61.7886 142.774 62.2249 142.718C62.6886 142.659 63.0061 142.453 63.3483 142.14C67.7031 138.184 71.7734 133.883 75.6384 129.457C79.5034 125.03 83.0922 120.454 86.4016 115.644C89.2913 111.446 91.998 107.104 94.3243 102.57C96.6507 98.0349 98.4766 93.542 99.7717 88.7509C101.067 83.9597 101.693 79.1659 101.416 74.3182C101.17 70.0063 100.08 65.718 98.2584 61.8021C96.4371 57.8862 93.8501 54.1616 90.7245 51.0145C87.5988 47.8673 84.0801 45.4167 80.1731 43.5761C76.2662 41.7355 71.8934 40.4977 67.5328 40.2827C62.9133 40.056 58.2145 40.7464 53.9335 42.5334C49.6182 44.3349 45.8488 47.1853 43.335 51.1464C41.1275 54.6238 40.021 59.0781 40.8357 63.1525C41.5547 66.7377 43.5235 69.9639 46.4798 72.162C49.4908 74.4024 53.1843 75.5209 56.9394 75.4145C61.5981 75.2835 65.96 73.1198 69.3747 70.0505C73.1447 66.6617 75.8558 62.1614 77.4617 57.3893C78.9494 52.9737 79.5958 48.3347 79.3691 43.6844C79.1501 39.1745 78.0997 34.6558 76.236 30.5379C74.177 25.988 71.1804 21.9296 67.4575 18.5837C63.792 15.2899 59.4206 12.6932 54.7479 11.0909C52.4095 10.2879 50.0039 9.69611 47.5466 9.38271C46.6911 9.27412 45.7535 9.81255 45.6319 10.7193C45.5194 11.5686 46.0576 12.5025 46.973 12.6217L46.9805 12.6172Z" fill="#4D53E8"/>
<path d="M62.9219 142.291C64.8014 136.809 64.9579 130.894 63.3713 125.323C62.9488 123.84 62.3921 122.398 61.7102 121.014C61.5087 120.602 61.2823 120.271 60.8464 120.07C60.4861 119.905 59.9768 119.863 59.6015 120.014C58.8509 120.316 58.1874 121.287 58.5926 122.113C59.1801 123.309 59.6767 124.548 60.0736 125.818C60.2667 126.436 60.4348 127.063 60.5837 127.694C60.6087 127.806 60.6986 128.319 60.6201 127.848C60.6447 128.002 60.6832 128.158 60.7118 128.312C60.7744 128.64 60.8292 128.968 60.8801 129.296C61.0781 130.613 61.1789 131.946 61.1792 133.277C61.1798 133.592 61.1725 133.908 61.1632 134.222C61.1619 134.206 61.1589 134.432 61.155 134.432C61.1781 134.426 61.1745 134.05 61.1565 134.379C61.145 134.572 61.1334 134.765 61.1158 134.956C61.0632 135.602 60.9907 136.247 60.8923 136.887C60.7815 137.615 60.6366 138.336 60.4637 139.051C60.3773 139.409 60.2809 139.765 60.1803 140.118C60.1342 140.275 60.0375 140.461 60.0272 140.623C60.0482 140.282 60.0943 140.411 60.0423 140.566C60.0047 140.683 59.965 140.798 59.9236 140.915C59.7812 141.334 59.7108 141.72 59.865 142.153C60.0013 142.539 60.3436 142.939 60.7288 143.097C61.4846 143.404 62.6244 143.166 62.9222 142.295L62.9219 142.291Z" fill="#4D53E8"/>
<path d="M62.7164 143.634C65.4504 142.491 68.2604 141.528 71.1238 140.758C71.8208 140.571 72.5189 140.395 73.2218 140.23C73.5713 140.148 73.9251 140.07 74.2749 139.991C74.5649 139.928 74.2614 139.995 74.213 140.004C74.3115 139.983 74.4083 139.963 74.5051 139.943C74.7005 139.901 74.8979 139.861 75.0936 139.823C76.5268 139.539 77.9717 139.301 79.4225 139.111C81.0914 138.891 82.7679 138.739 84.4471 138.644C85.3113 138.597 86.0663 137.731 85.9573 136.869C85.8483 136.007 85.0981 135.318 84.1752 135.37C78.1199 135.704 72.0933 136.857 66.3382 138.768C64.7424 139.298 63.1653 139.888 61.6147 140.537C60.8194 140.87 60.2609 141.778 60.6058 142.636C60.9232 143.424 61.8602 143.991 62.7146 143.636L62.7164 143.634Z" fill="#4D53E8"/>
</g>
</svg>
