<svg width="56" height="56" viewBox="0 0 56 56" fill="none" xmlns="http://www.w3.org/2000/svg">
<path d="M19.2559 23.9411V14.0837C19.2559 9.22323 23.2302 5.26937 28.115 5.26937C32.9998 5.26937 36.9741 9.22323 36.9741 14.0837V23.9411H39.2437V14.0837C39.2437 7.97215 34.2515 3 28.115 3C21.9785 3 16.9863 7.97238 16.9863 14.0837V23.9411H19.2559Z" fill="#87B7E7"/>
<path d="M39.5997 53H16.6139C13.5183 53 11 50.49 11 47.4061V27.8029C11 24.7188 13.5183 22.209 16.6139 22.209H39.5999C42.6954 22.209 45.2138 24.719 45.2138 27.8029V47.4061C45.2138 50.49 42.6954 53 39.5997 53ZM16.6139 24.4781C14.7698 24.4781 13.2694 25.9696 13.2694 27.8026V47.4059C13.2694 49.2387 14.7698 50.7304 16.6139 50.7304H39.5999C41.4439 50.7304 42.9444 49.2389 42.9444 47.4059V27.8026C42.9444 25.9698 41.4439 24.4781 39.5999 24.4781H16.6139Z" fill="#87B7E7"/>
<path fill-rule="evenodd" clip-rule="evenodd" d="M13.2694 27.8026C13.2694 25.9696 14.7698 24.4781 16.6139 24.4781H39.5999C41.4439 24.4781 42.9444 25.9698 42.9444 27.8026V47.4059C42.9444 49.2389 41.4439 50.7304 39.5999 50.7304H16.6139C14.7698 50.7304 13.2694 49.2387 13.2694 47.4059V27.8026Z" fill="#87B7E7"/>
<path d="M28.1034 37.6266C27.4768 37.6266 26.9688 37.119 26.9688 36.4919V33.0234C26.9688 32.3962 27.4768 31.8887 28.1034 31.8887C28.7301 31.8887 29.2381 32.3962 29.2381 33.0234V36.4919C29.2383 37.119 28.7301 37.6266 28.1034 37.6266Z" fill="white"/>
<path d="M28.1098 43.3212C25.9762 43.3212 24.2402 41.5914 24.2402 39.4649C24.2402 37.3384 25.9762 35.6074 28.1098 35.6074C30.2431 35.6074 31.979 37.3384 31.979 39.4649C31.979 41.5914 30.2431 43.3212 28.1098 43.3212ZM28.1098 37.8768C27.2277 37.8768 26.5096 38.5893 26.5096 39.4647C26.5096 40.3401 27.2277 41.0517 28.1098 41.0517C28.992 41.0517 29.7094 40.3403 29.7094 39.4647C29.7094 38.5891 28.992 37.8768 28.1098 37.8768Z" fill="white"/>
</svg>
