<svg width="57" height="56" viewBox="0 0 57 56" fill="none" xmlns="http://www.w3.org/2000/svg">
<path opacity="0.5" d="M7.54102 24.305C7.54102 16.8438 7.54102 13.1133 8.4219 11.8583C9.30275 10.6033 12.8104 9.40259 19.8258 7.00119L21.1624 6.5437C24.8193 5.29191 26.6477 4.66602 28.541 4.66602C30.4343 4.66602 32.2627 5.29191 35.9197 6.5437L37.2562 7.00119C44.2716 9.40259 47.7793 10.6033 48.6602 11.8583C49.541 13.1133 49.541 16.8438 49.541 24.305V27.9793C49.541 41.1346 39.65 47.5188 33.4443 50.2297C31.761 50.9649 30.9194 51.3327 28.541 51.3327C26.1626 51.3327 25.321 50.9649 23.6377 50.2297C17.4319 47.5188 7.54102 41.1346 7.54102 27.9793V24.305Z" fill="#2889CF"/>
<path d="M33.2083 21.0007C33.2083 23.5781 31.1191 25.6673 28.5417 25.6673C25.9643 25.6673 23.875 23.5781 23.875 21.0007C23.875 18.4233 25.9643 16.334 28.5417 16.334C31.1191 16.334 33.2083 18.4233 33.2083 21.0007Z" fill="#2889CF"/>
<path d="M28.5404 39.6673C37.8737 39.6673 37.8737 37.5781 37.8737 35.0007C37.8737 32.4233 33.6949 30.334 28.5404 30.334C23.3857 30.334 19.207 32.4233 19.207 35.0007C19.207 37.5781 19.207 39.6673 28.5404 39.6673Z" fill="#2889CF"/>
</svg>
