<svg width="300" height="24" viewBox="0 0 300 24" fill="none" xmlns="http://www.w3.org/2000/svg">
<g clip-path="url(#clip0_13681_47646)">
<path d="M59.3011 7.31048C59.4288 7.55319 59.5168 7.98159 59.8003 7.57714C59.8193 7.55409 59.8471 7.49384 59.8471 7.49384C60.2233 7.92868 60.5798 7.93876 60.9138 7.39941C60.9497 7.47089 60.9808 7.54997 61.0261 7.60625C61.1919 7.81019 61.3313 8.14037 61.5912 7.7739C61.6527 7.68981 61.826 7.79057 61.9485 7.8133C62.12 7.84073 62.2869 7.88309 62.458 7.89586C62.7514 7.9167 63.0403 7.74688 63.3441 8.00943C63.4837 8.13403 63.8046 8.07996 63.9227 7.91205C64.1211 7.62966 64.2246 7.88103 64.2616 8.00383C64.3784 8.40866 64.4368 8.61107 64.4906 7.9841C64.7413 7.85307 64.9923 7.72936 65.238 7.59125C65.3198 7.54277 65.4037 7.36937 65.4627 7.38821C65.5955 7.43241 65.8129 7.54546 65.8255 7.66959C65.9014 8.41435 66.0387 7.59932 66.1582 7.70298C66.2727 7.79957 66.4794 7.66357 66.5892 7.76776C66.7589 7.92744 66.8249 7.82842 66.9735 7.71025C67.2561 7.48205 67.5813 7.1928 67.8906 7.68999C68.1239 7.43509 68.3579 7.84091 68.5984 7.68841C68.7763 7.57599 69.0148 7.33549 69.1291 7.42475C69.3578 7.60326 69.562 7.57019 69.7812 7.55098C69.9859 7.5399 70.1944 7.47723 70.3996 7.48815C70.7173 7.50767 71.0961 7.4211 71.3357 7.65041C71.6151 7.91428 71.715 7.38027 71.9189 7.54543C72.1079 7.69673 72.3027 7.88442 72.5088 7.932C72.7003 7.98037 72.9077 7.87371 73.1067 7.82623C73.1648 7.8084 73.2256 7.69498 73.2651 7.71487C73.3837 7.77453 73.4899 7.93764 73.6123 7.95305C73.7201 7.96924 73.8384 7.80866 73.9554 7.80233C74.4772 7.78144 75.0032 7.52537 75.528 7.84204C75.6369 7.90957 75.7815 7.82833 75.9128 7.80654C76.7882 7.67107 77.1157 7.69006 77.7549 8.10332C77.9432 8.22528 77.9305 8.30673 78.0003 7.95054C78.057 7.66114 78.3227 7.54398 78.5763 7.74317C78.8946 7.9976 79.2227 8.04592 79.5519 7.71975C79.6665 7.61076 79.8425 7.62326 79.9883 7.59335C80.1681 7.56159 80.4141 7.64373 80.5083 7.49913C80.7484 7.11905 80.9334 7.30727 81.1758 7.44833C81.4035 7.58285 81.6241 7.83521 81.9172 7.4229C82.1109 7.14811 82.4988 7.4575 82.7794 7.1413C83.0221 6.87121 83.2984 7.20866 83.5386 7.2544C83.833 7.31923 84.1223 7.37699 84.4188 7.32424C84.9975 7.23419 85.5625 7.60007 86.1432 7.38511C86.1965 7.36754 86.2972 7.50158 86.3435 7.60187C86.4976 7.93125 86.6379 8.29809 86.8988 7.7627C87.2481 7.88329 87.5571 7.31594 87.9354 7.63319C88.0499 7.72978 88.2983 7.709 88.3832 7.5796C88.6428 7.19846 88.799 7.41026 89.0146 7.65556C89.1148 7.7676 89.2992 7.72091 89.4504 7.71273C89.9086 7.68794 90.3668 7.66314 90.825 7.63835C91.0516 8.14736 91.2159 7.23542 91.468 7.58153C91.6497 7.83601 91.8814 7.72802 92.092 7.54777C92.1303 7.51633 92.213 7.50451 92.2431 7.53959C92.2983 7.60268 92.3349 7.71082 92.376 7.7967C92.3882 7.69326 92.3954 7.58274 92.4174 7.47877C92.4216 7.44917 92.5039 7.42269 92.5191 7.4439C92.6607 7.65649 92.7671 7.61402 92.8988 7.40132C92.9927 7.24206 93.1099 7.24306 93.1794 7.50361C93.2062 7.60494 93.3019 7.73192 93.3703 7.73556C93.9708 7.73978 94.5612 7.94277 95.1728 7.79954C95.532 7.71403 95.9233 7.53868 96.2781 7.89391C96.3863 7.50628 96.6301 7.91892 96.8005 7.68944C96.9188 7.52886 97.0917 7.40938 97.2536 7.86315C97.4466 8.396 97.9103 7.97445 98.2458 8.1325C98.473 8.24502 98.7439 7.92935 98.98 8.21759C99 8.23853 99.068 8.22751 99.082 8.19738C99.3399 7.74292 99.6967 7.76766 100.042 7.6976C100.139 7.67766 100.216 7.44586 100.316 7.33034C100.345 7.29942 100.453 7.34495 100.453 7.35228C100.448 7.74904 100.662 7.71543 100.772 7.61404C101.006 7.40313 101.198 7.26793 101.403 7.66067C101.428 7.70334 101.507 7.75045 101.512 7.74286C101.797 7.20615 102.106 7.69601 102.403 7.65792C102.593 7.63297 102.971 7.94289 102.965 7.24576C103.019 7.26486 103.077 7.26903 103.132 7.29546C103.62 7.52598 104.112 7.89583 104.624 7.64789C104.884 7.52365 105.093 7.46832 105.354 7.57899C105.61 7.68259 105.906 7.35827 106.153 7.72664C106.31 7.96044 106.363 7.29681 106.59 7.60758C106.686 7.74188 106.928 7.65537 107.103 7.62387C107.273 7.59998 107.442 7.52475 107.612 7.47152C107.665 7.45396 107.727 7.41387 107.772 7.44082C108.406 7.83235 109.055 7.60635 109.703 7.5786C110.147 7.55459 110.599 7.28782 111.042 7.63831C111.171 7.74144 111.334 7.60048 111.422 7.38283C112.011 8.36413 112.805 7.24192 113.433 7.81729C113.83 7.25985 114.393 7.75799 114.836 7.26417C115.111 6.95557 115.595 7.37727 115.906 6.89057C115.906 6.89057 115.977 7.01887 116.021 7.03116C116.208 7.08713 116.137 7.83247 116.397 7.45866C116.619 7.14563 116.687 7.53109 116.842 7.50065C117.231 7.43555 117.636 7.22275 118.025 7.56147C118.085 7.61697 118.214 7.51452 118.306 7.46551C118.397 7.4165 118.473 7.30963 118.565 7.28995C118.861 7.22253 119.146 7.29522 119.441 7.38205C119.672 7.45765 119.956 7.08986 120.211 7.12014C120.789 7.19166 121.358 7.35171 121.924 7.54136C122.057 7.58556 122.107 7.20843 122.275 7.49303C122.351 7.62839 122.607 7.52642 122.783 7.51693C122.939 7.50849 123.095 7.51471 123.245 7.46253C123.381 7.41115 123.51 7.30138 123.634 7.19186C123.868 6.98096 124.122 6.98924 124.355 7.13082C124.622 7.29256 124.882 7.30791 125.154 7.26381C125.334 7.23938 125.329 7.25431 125.334 7.67253C125.336 7.73852 125.353 7.85506 125.383 7.86814C125.447 7.90137 125.525 7.91182 125.588 7.88639C125.627 7.86961 125.648 7.75097 125.692 7.7266C125.86 7.62938 125.678 7.13266 125.977 7.17523C126.265 7.211 126.586 6.92935 126.836 7.37838C126.963 7.60643 127.08 7.58543 127.211 7.35807C127.286 7.22919 127.406 7.13461 127.512 7.07748C127.589 7.03659 127.711 7.03 127.771 7.09283C128.126 7.47006 128.152 7.51273 128.565 7.22607C128.699 7.1307 128.79 7.05236 128.887 7.23066C129.055 7.53726 129.193 7.56654 129.33 7.18466C129.348 7.13228 129.396 7.10031 129.43 7.05447C129.655 7.53415 129.812 6.93097 130.004 6.97201C130.116 6.99528 130.222 7.11439 130.34 7.15939C130.478 7.21066 130.625 7.24674 130.767 7.26109C130.855 7.26368 130.946 7.18534 131.039 7.18766C131.156 7.19599 131.279 7.22606 131.392 7.28599C131.644 7.41919 131.825 6.99827 132.122 7.16576C132.384 7.3131 132.731 7.13279 133.038 7.1015C133.32 7.07154 133.602 7.04158 133.885 7.00428C134.167 6.97431 134.449 6.92235 134.732 6.91438C135.103 6.90167 135.469 6.70564 135.847 6.99356C135.956 7.08308 136.165 6.84416 136.331 6.82786C136.482 6.81235 136.635 6.8995 136.792 6.90572C136.85 6.90256 136.911 6.79647 136.968 6.71998C137.275 6.29221 137.521 7.19665 137.709 6.88546C137.981 6.43754 138.222 6.48327 138.491 6.74033C138.706 6.94897 138.914 6.87897 139.139 6.9035C139.428 6.93193 139.718 7.01169 140.003 7.09171C140.012 7.09119 139.994 7.34915 139.987 7.48899C140.074 7.43292 140.156 7.3771 140.242 7.32836C140.31 7.288 140.377 7.24765 140.45 7.22169C140.527 7.20281 140.605 7.19859 140.683 7.19437C140.704 7.25931 140.725 7.31691 140.742 7.38211C140.774 7.31427 140.807 7.24643 140.834 7.17886C140.961 7.172 141.128 7.22169 141.209 7.12188C141.356 6.93772 141.444 6.75673 141.65 7.00989C141.726 7.10126 141.939 7.02366 142.049 6.92227C142.173 6.80542 142.249 6.74254 142.375 6.88993C142.536 7.07947 142.675 6.97649 142.852 6.84208C143.044 6.69954 143.287 6.67169 143.507 6.66715C143.57 6.66372 143.635 6.93186 143.697 7.08268C143.773 6.9978 143.844 6.89118 143.931 6.84977C143.97 6.833 144.055 6.93117 144.086 7.01025C144.138 7.16159 144.167 7.32892 144.2 7.49599C144.215 7.31162 144.221 7.13511 144.246 6.95021C144.262 6.8245 144.294 6.70534 144.32 6.58643C144.347 6.68777 144.35 6.83442 144.4 6.87578C144.475 6.94515 144.578 6.96894 144.671 6.97859C144.92 7.0018 145.212 6.53083 145.421 7.12155C145.427 7.14328 145.606 7.07486 145.609 7.0306C145.659 6.43323 145.813 6.56437 146.044 6.83821C146.149 6.95733 146.322 7.03608 146.448 7.00723C147.041 6.86506 147.671 7.1246 148.225 6.60271C148.264 6.56394 148.354 6.68385 148.428 6.68722C148.618 6.69893 148.869 6.8028 148.988 6.66422C149.183 6.42609 149.325 6.67535 149.422 6.64075C149.645 6.55528 149.738 7.189 149.967 6.78744C150.117 6.52236 150.319 6.81245 150.476 6.848C150.79 6.91911 151.127 6.90824 151.316 6.63372C151.557 6.28297 151.668 6.67338 151.913 6.71886C151.963 6.73822 151.932 6.69581 151.912 6.65286C151.888 6.69085 151.87 6.72856 151.846 6.76655C151.876 6.80163 151.911 6.83644 151.946 6.8566C151.951 6.85633 151.974 6.81101 151.918 6.71859C152.191 6.27067 152.22 6.26909 152.304 6.74175C152.344 6.96722 152.376 7.11228 152.536 7.04492C152.744 6.96025 152.945 6.79519 153.154 6.76185C153.329 6.73768 153.519 6.27958 153.701 6.7763C153.779 6.99965 153.837 6.74691 153.914 6.70603C154.131 6.58417 154.413 6.33397 154.567 6.44311C154.81 6.62083 155.016 6.46284 155.232 6.50989C155.257 6.50857 155.286 6.49232 155.31 6.50567C155.478 6.57736 155.539 7.12467 155.837 6.70475C155.955 6.53684 156.24 6.58754 156.436 6.62832C156.637 6.66883 156.809 6.71092 157.005 6.56812C157.159 6.46436 157.371 6.563 157.535 6.47338C157.685 6.39921 157.754 6.85799 157.908 6.54865C157.922 6.51853 158.08 6.58341 158.121 6.6693C158.28 7.01308 158.532 6.94804 158.749 7.02442C158.818 7.05006 158.933 6.96307 158.985 6.87951C159.257 6.40959 159.403 6.40901 159.634 6.88109C159.659 6.9311 159.723 6.92767 159.767 6.95463C159.788 7.01956 159.809 7.07717 159.825 7.14237C159.858 7.07453 159.891 7.00669 159.918 6.93912C160.131 6.83952 160.359 6.99603 160.572 6.72752C160.667 6.60492 160.921 6.80412 161.101 6.80169C161.442 6.78322 161.227 6.97841 161.188 7.1641C161.174 7.22355 161.326 7.42828 161.409 7.43846C161.472 7.44237 161.541 7.24776 161.612 7.14115C161.455 6.91468 161.519 6.73501 161.657 6.55871C161.847 6.95957 162.001 6.26108 162.198 6.5221C162.379 6.76191 162.538 6.67988 162.729 6.49335C162.863 6.3613 163.1 6.28972 163.229 6.38551C163.413 6.52974 163.493 6.59151 163.683 6.37565C163.773 6.26798 164.036 6.43732 164.204 6.54567C164.269 6.58624 164.293 6.79049 164.335 6.91304C164.366 6.78653 164.387 6.65323 164.429 6.54087C164.447 6.48848 164.533 6.42508 164.549 6.44628C164.81 6.79186 165.031 6.42016 165.274 6.37031C165.498 6.32885 165.729 6.41911 165.953 6.39231C166.225 6.35554 166.497 6.26011 166.764 6.19427C166.972 6.14627 167.172 6.12812 167.316 6.4287C167.326 6.45017 168.107 6.6722 168.116 6.64968C168.26 6.3262 168.35 6.84259 168.484 6.70322C168.584 6.60236 168.684 6.50149 168.795 6.43676C169.262 6.17653 169.866 6.09983 170.538 6.27634C170.651 6.30693 170.724 6.47189 170.816 6.24663C170.978 5.84877 171.265 5.81121 171.474 5.99078C171.653 6.13527 171.672 5.91398 171.755 5.90216C171.828 5.8982 171.906 6.09956 171.991 6.17573C172.03 6.21029 172.114 6.21313 172.152 6.17436C172.413 5.85921 172.801 6.17594 173.065 5.75787C173.112 5.68191 173.392 5.98977 173.579 6.05308C173.805 6.12893 174.026 6.60887 174.292 6.08055C174.353 5.9598 174.594 6.0642 174.739 6.00496C174.991 5.90325 175.042 6.21618 175.187 6.35518C175.382 6.54287 175.577 6.54699 175.347 6.94121C175.347 6.94121 175.414 7.0771 175.453 7.08965C175.527 7.10769 175.663 7.10764 175.677 7.07019C175.858 6.26012 176.336 6.65276 176.769 6.81286C176.856 6.96969 176.852 6.8157 176.834 6.66251C176.828 6.59678 176.778 6.54809 176.752 6.48342C176.729 6.5654 176.712 6.64711 176.684 6.72201C176.652 6.81185 176.62 6.90902 176.573 6.96299C176.511 7.03974 176.237 6.99586 176.529 7.20761C176.604 7.26231 176.66 7.36206 176.721 7.45422C176.756 7.5037 176.777 7.56864 176.803 7.63331C176.826 7.58067 176.874 7.5267 176.877 7.46778C176.884 7.35726 176.872 7.23313 176.769 6.80552C176.784 5.98976 177.045 6.30601 177.239 6.24413C177.222 6.32584 177.194 6.40808 177.182 6.49687C177.169 6.60031 177.177 6.71004 177.174 6.81296C177.228 6.78806 177.291 6.7773 177.334 6.73093C177.472 6.58396 177.615 6.44406 177.738 6.27588C177.847 6.12317 177.931 6.18467 178.058 6.19981C178.45 6.25203 178.891 6.33828 179.238 6.13597C179.503 5.98215 179.424 6.14795 179.486 6.32077C179.507 6.37837 179.683 6.39088 179.735 6.32931C179.887 6.13756 179.973 5.82458 180.228 5.87685C180.38 5.90534 180.381 5.95667 180.307 6.13687C180.284 6.18952 180.352 6.3914 180.407 6.43249C180.451 6.46678 180.547 6.37351 180.614 6.32583C180.633 6.31011 180.646 6.24332 180.666 6.24227C180.782 6.2286 180.539 5.63239 180.874 5.95935C181.004 6.08448 181.208 6.03674 181.187 6.43428C181.174 6.71397 181.076 6.69725 180.946 6.74837C180.733 6.82597 180.663 7.16016 180.805 7.39475C180.835 7.45183 180.942 7.40936 181.01 7.39834C181.01 7.39834 181.026 7.27263 181.006 7.24435C180.935 7.13805 180.825 7.0192 181.019 6.97199C181.117 6.95205 181.226 7.0489 181.33 7.09469C181.33 6.91111 181.35 6.71915 181.331 6.53662C181.282 6.08411 181.652 6.25498 181.699 5.95877C181.725 6.06011 181.748 6.16904 181.788 6.24759C181.814 6.29026 181.907 6.31458 181.926 6.2842C182.228 5.84936 182.223 5.84962 182.558 6.19858C182.589 6.23366 182.7 6.19093 182.704 6.176C182.763 5.56344 183.067 5.81865 183.273 5.85157C183.459 5.87821 183.651 5.97058 183.811 6.11612C184.085 6.36559 184.167 5.67838 184.416 5.88517C184.456 5.91972 184.505 5.93908 184.549 5.96604C184.521 6.01895 184.499 6.10826 184.47 6.10984C184.129 6.16497 184.314 6.35319 184.434 6.46418C184.564 6.58197 185.041 6.54879 185.28 6.51387C185.382 6.50099 185.498 6.67825 185.605 6.67244C185.717 6.66637 185.589 5.96118 185.941 6.40467C186.061 6.55232 186.301 6.34848 186.51 6.52805C186.719 6.70029 186.905 6.71226 186.675 7.10648C186.675 7.10648 186.736 7.24264 186.781 7.25493C186.815 7.26775 186.902 7.219 186.906 7.18208C186.922 7.03437 186.938 6.87933 186.92 6.7408C186.861 6.31081 187.116 6.15752 187.232 5.87228C187.272 5.9215 187.336 5.95473 187.352 6.01994C187.507 6.59156 187.581 6.61694 187.986 6.19855C188.064 6.19433 188.153 6.21891 188.21 6.16442C188.635 5.75232 189.081 5.83097 189.604 6.08898C189.653 6.10834 189.623 6.06593 189.602 6.02298C189.579 6.06097 189.56 6.09869 189.537 6.13667C189.567 6.17175 189.602 6.20656 189.636 6.22672C189.641 6.22645 189.665 6.18114 189.609 6.08871C189.547 5.95989 189.564 5.83419 189.579 5.83339C189.998 5.81071 190.415 5.48712 190.829 5.86119C190.993 6.00647 191.116 5.43447 191.321 5.81988C191.433 6.03406 191.664 6.09498 191.81 6.27798C192.036 6.55941 192.042 6.38291 192.02 6.09039C191.993 5.77615 192.078 5.64674 192.272 5.78311C192.361 5.85168 192.398 5.9525 192.501 5.78537C192.647 5.55722 192.761 5.63181 192.798 5.9602C192.811 6.09899 192.844 6.25139 192.9 6.35848C193.099 6.74415 193.198 6.7682 193.489 6.51747C193.628 6.39983 193.723 6.05699 193.921 6.38401C194.032 6.56885 194.077 6.17732 194.261 6.33621C194.535 6.57101 194.591 6.47252 194.647 5.94088C194.675 5.66039 194.763 5.64831 194.896 5.69985C195.009 5.74511 195.123 5.8417 195.236 5.8503C195.612 5.88132 195.276 6.10509 195.289 6.23655C195.291 6.30988 195.307 6.38241 195.313 6.45548C195.367 6.43058 195.43 6.41982 195.473 6.37345C195.582 6.24272 195.629 5.96118 195.831 6.03836C196.22 6.18617 196.298 6.17462 196.566 5.93987C196.905 5.64984 196.905 5.6425 197.14 6.06299C197.185 6.14128 197.229 6.32248 197.243 6.32169C197.402 6.23966 197.584 6.72171 197.73 6.24398C197.784 6.07217 197.824 6.10672 197.958 6.4005C197.978 6.45077 198.047 6.46907 198.091 6.4667C198.135 6.46433 198.217 6.40851 198.216 6.37918C198.206 5.96122 198.262 5.64983 198.61 5.70442C198.856 5.16983 198.809 5.86252 198.892 5.85804C199.165 5.84327 199.321 6.04774 199.451 6.37111C199.497 6.49339 199.557 6.54155 199.676 6.4103C199.842 6.21775 200.054 6.06683 200.257 6.01909C200.593 5.94956 200.951 6.45878 201.29 5.94117C201.314 5.90318 201.318 6.29208 201.544 6.36793C201.923 6.48694 201.944 6.56654 202.119 6.1019C202.174 5.95941 202.638 5.74344 202.718 5.84921C203.181 6.42622 203.667 6.14294 204.135 5.89737C204.309 5.80722 204.384 5.70767 204.456 6.04887C204.489 6.20128 204.618 6.31174 204.704 6.44657C204.747 5.98172 205.177 6.42098 205.215 5.94906C205.226 5.80162 205.194 5.69321 205.367 5.7793C205.634 5.91904 205.923 5.98414 206.208 6.0495C206.449 6.1099 206.673 6.32534 206.939 5.99527C207.067 5.83416 207.338 5.9223 207.542 5.90389C207.544 5.98455 207.546 6.05788 207.516 6.25037C207.503 6.32449 207.531 6.27891 207.56 6.248C207.535 6.21266 207.51 6.18464 207.484 6.1493C207.461 6.19461 207.438 6.24726 207.424 6.29938C207.425 6.30671 207.455 6.34179 207.516 6.25771C207.731 6.04785 208.023 5.80445 208.069 5.88274C208.272 6.23882 208.358 5.74959 208.492 5.81579C208.531 5.83568 208.558 5.92235 208.589 5.98676L208.878 6.66859C208.905 6.59368 208.957 6.51745 208.96 6.44386C208.983 6.16364 209.143 6.12561 209.215 6.26123C209.363 6.56155 209.431 6.13204 209.551 6.22837C209.65 6.31108 209.777 6.31889 209.981 6.46939C210.041 6.51022 210 6.43167 209.964 6.35286C209.94 6.39084 209.897 6.44454 209.903 6.46628C209.93 6.58228 209.971 6.68283 210.003 6.79857C210.022 6.73885 210.04 6.67913 209.981 6.47672C209.888 6.25416 209.864 6.04257 209.878 6.03445C210.019 5.9828 210.201 5.86279 210.301 5.95284C210.47 6.09785 210.558 6.10777 210.69 5.88774C210.727 5.81963 210.861 5.8785 210.949 5.88842C210.935 6.33703 211.147 6.2521 211.312 6.20646C211.492 6.15271 211.744 5.89675 211.83 5.99493C212.04 6.24049 212.187 5.60118 212.406 5.99313C212.492 6.14263 212.787 6.00922 212.982 6.03533C213.271 6.0711 213.041 6.23774 213.014 6.35664C213.001 6.42343 213 6.57035 213.01 6.56982C213.3 6.66424 213.359 7.11623 213.569 7.33246C213.604 7.36727 213.687 7.37746 213.711 7.34681C213.758 7.27818 213.805 7.17288 213.802 7.08489C213.799 6.92357 213.856 6.6415 213.651 6.66725C213.374 6.70428 213.532 6.17443 213.327 6.14885C213.345 6.09647 213.358 6.03701 213.382 5.9917C213.396 5.96891 213.44 5.96654 213.455 5.98774C213.56 6.08486 213.655 6.2045 213.764 6.28669C213.943 6.42385 214.132 6.56048 214.23 6.13671C214.284 6.19247 214.354 6.22544 214.39 6.30426C214.451 6.44041 214.554 6.66244 214.522 6.73028C214.429 6.93354 214.318 6.78536 214.213 6.67358C214.168 6.62462 214.076 6.65896 214.007 6.65532C214.044 6.75613 214.062 6.902 214.117 6.96509C214.232 7.09101 214.361 7.19414 214.49 7.2826C214.868 7.54853 214.887 7.54014 214.884 6.975C214.878 6.71836 214.917 6.53267 215.041 6.38649C215.06 6.36344 215.148 6.40269 215.174 6.4527C215.22 6.53098 215.237 6.64018 215.268 6.73392C215.367 6.5744 215.454 6.32008 215.616 6.56828C215.631 6.58948 215.438 6.87893 215.374 7.06594C215.31 7.25295 215.281 7.46744 215.236 7.66806C214.967 7.60924 214.704 7.86573 214.416 7.63172C214.346 7.56942 214.124 7.88245 213.981 8.04435C213.815 8.24423 213.645 7.65873 213.484 8.07126C213.355 8.40128 213.195 8.47598 213.003 8.16336C212.982 8.12776 212.814 8.22498 212.814 8.25431C212.825 8.7236 212.594 8.64067 212.405 8.68762C212.046 8.7878 211.688 8.93197 211.324 9.02508C211.256 9.04344 211.117 8.92617 211.11 8.85311C211.076 8.42914 211.03 8.11595 210.728 8.58745C210.688 8.5309 210.628 8.47541 210.617 8.40994C210.594 8.26434 210.595 8.10276 210.585 7.89771C210.585 7.88305 210.586 7.91238 210.587 7.94904C210.625 7.92493 210.669 7.90789 210.702 7.86938C210.711 7.85419 210.68 7.78245 210.669 7.73165C210.641 7.7699 210.613 7.80814 210.585 7.89771C210.382 7.98945 210.106 7.85757 210.114 8.40045C209.886 8.46418 209.713 8.99481 209.43 8.58429C209.345 8.90461 209.099 8.43332 208.981 8.80681C208.94 8.9265 208.614 8.95884 208.47 8.86383C208.019 8.5652 207.574 8.75812 207.131 8.81146C206.82 8.85034 206.506 8.78656 206.186 9.09021C205.99 9.277 205.619 9.05481 205.33 8.98972C205.143 8.94841 204.956 8.87044 204.778 8.76262C204.619 8.67573 204.488 8.46262 204.325 8.41999C204.129 8.37188 203.894 8.53879 203.716 8.44563C203.523 8.34593 203.474 8.95797 203.28 8.57936C203.275 8.56496 203.183 8.60664 203.179 8.63623C203.069 9.37635 202.733 9.22564 202.45 8.99137C202.266 8.83981 202.111 8.92157 201.94 8.89414C201.651 8.85104 201.336 9.16176 201.063 8.76538C201.028 8.70856 200.877 8.73141 200.844 8.79191C200.615 9.21547 200.358 8.89162 200.118 8.85322C199.898 8.82109 199.682 8.53913 199.466 8.92523C199.429 8.99333 199.243 8.97402 199.187 8.89626C198.971 8.60697 198.685 8.71053 198.537 8.83603C197.948 9.33776 197.41 9.0952 196.851 8.77305C196.817 8.75289 196.728 8.92656 196.666 9.01064C196.538 8.92951 196.533 9.36293 196.303 9.13308C196.068 8.90351 195.745 8.64934 195.407 9.02004C195.326 9.10518 195.095 9.00759 194.989 8.88115C194.789 8.64972 194.536 8.7001 194.412 8.82428C193.891 9.32232 193.313 9.02321 192.776 9.20648C192.737 9.21592 192.653 9.16175 192.652 9.12508C192.63 8.583 192.478 9.00233 192.356 9.00892C191.678 9.01626 191.008 9.39022 190.322 9.03826C190.154 8.95191 189.928 9.09629 189.729 9.14377C189.671 9.1616 189.585 9.26901 189.575 9.25487C189.189 8.58565 188.702 9.08918 188.271 9.00973C188.1 9.41545 187.895 9.01538 187.701 9.06259C187.527 9.10875 187.471 9.031 187.612 8.78111C187.738 8.55401 187.835 8.29183 187.921 8.03017C187.949 7.95527 187.892 7.81885 187.875 7.70965C187.838 7.79975 187.791 7.89038 187.769 7.98703C187.721 8.22457 187.429 8.05681 187.454 8.51064C187.464 8.74502 187.238 9.08032 186.937 8.72219C186.806 8.56039 186.645 8.76001 186.856 9.0349C186.861 9.04197 186.754 9.25335 186.698 9.3665C186.657 9.27329 186.629 9.14262 186.569 9.08713C186.455 8.97587 186.377 8.58361 186.177 8.99824C186.014 9.34477 185.828 8.70141 185.586 8.98616C185.434 9.17059 185.15 9.13456 184.926 9.13203C184.818 9.13783 184.708 8.99698 184.603 8.9072C184.553 8.86584 184.132 8.58763 184.094 8.61907C184.05 8.65077 184.023 8.71835 183.99 8.77152C183.756 8.38036 183.456 8.71228 183.2 8.60868C183.166 8.59586 183.144 8.49426 183.128 8.42906C183.061 8.06559 182.962 8.23245 182.803 8.31448C182.639 8.40411 182.513 8.88078 182.275 8.51188C182.128 8.90162 181.973 8.74848 181.779 8.58278C181.689 8.49954 181.526 8.61117 181.399 8.60336C181.306 8.60104 181.208 8.55499 181.114 8.53067C181.159 8.36671 181.204 8.20276 181.244 8.03173C181.271 7.92016 181.288 7.80912 181.31 7.69781C181.188 7.7264 181.012 7.69924 180.961 7.80479C180.867 7.99339 180.791 8.27651 180.806 8.50329C180.835 8.92753 180.684 8.9357 180.494 8.93866C180.314 8.94842 180.134 8.97284 179.954 8.99727C179.652 9.04295 179.746 8.87636 179.863 8.65712C179.886 8.60447 179.847 8.41567 179.802 8.36672C179.762 8.3175 179.64 8.33143 179.603 8.38487C179.523 8.52134 179.473 8.69289 179.413 8.8503C179.298 9.1502 179.27 9.17378 179.11 8.80066C178.95 8.42754 178.951 8.89003 178.862 8.87278C178.004 8.69163 177.566 8.73003 176.923 8.99976C176.884 9.01654 176.81 8.98383 176.785 8.94115C176.739 8.86287 176.717 8.75394 176.685 8.6602C176.611 8.80374 176.542 8.99101 176.409 8.74856C176.409 8.74856 176.299 8.83528 176.261 8.90339C176.163 9.07758 176.104 9.07341 175.928 9.03158C175.614 8.96047 175.195 8.81424 174.96 9.39964C174.877 9.6097 174.82 9.45861 174.735 9.38977C174.531 9.2246 174.328 9.30168 174.1 9.37273C173.926 9.42623 173.573 9.79038 173.489 9.09748C173.488 9.06815 173.225 9.08972 173.089 9.13377C172.949 9.17075 172.773 9.37849 172.683 9.30991C172.167 8.92672 171.599 9.47873 171.096 9.07275C170.834 9.53481 170.781 8.95764 170.652 8.84718C170.487 8.7019 170.412 8.59586 170.202 8.81278C170.007 9.02158 169.745 9.51297 169.431 9.02338C169.38 9.1656 169.343 9.43195 169.284 9.43511C168.939 9.46851 168.601 9.64829 168.24 9.4549C167.845 9.24869 167.489 9.49552 167.199 10.0105C167.147 10.1014 167.013 10.1968 166.968 10.1551C166.53 9.80439 166.071 9.77052 165.595 9.87703C165.401 9.92425 165.311 9.83368 165.294 9.5409C165.294 9.52623 165.083 9.47892 165.05 9.54676C164.886 9.84196 164.669 9.74357 164.479 9.75386C164.265 9.76547 164.052 9.66682 163.836 9.60511C163.669 9.55541 163.529 10.0475 163.345 9.66108C163.165 9.90575 162.971 9.75471 162.775 9.73594C162.658 9.72027 162.529 9.85204 162.408 9.9173C162.326 9.09948 162.1 10.0955 161.977 9.83786C161.805 10.1849 161.766 10.0034 161.75 9.71067C161.701 9.72797 161.613 9.72539 161.609 9.76965C161.455 10.4755 161.469 10.438 160.962 10.0323C160.842 9.93598 160.599 10.375 160.424 9.988C159.901 9.9649 159.378 9.94912 158.855 9.92602C158.587 9.91853 158.4 10.0608 158.187 10.344C158.012 10.5811 157.872 9.83239 157.565 10.0546C157.33 10.2288 157.058 10.3023 156.796 10.3825C156.598 10.4446 156.403 10.4625 156.235 10.1853C156.169 10.0714 156.018 10.0649 155.9 10.0272C155.762 9.98327 155.666 10.451 155.477 10.0868C155.41 9.95827 155.206 9.98401 155.063 9.955C154.995 9.9367 154.877 9.89903 154.858 9.93675C154.692 10.3569 154.528 9.99868 154.357 9.99325C154.195 9.98729 153.848 9.74911 153.863 10.3797C153.864 10.4164 153.738 10.4526 153.676 10.5073C153.475 10.6871 153.292 9.98476 153.08 10.4955C152.941 10.8334 152.671 10.1432 152.541 10.6348C152.274 10.4877 151.998 10.3632 151.74 10.1862C151.641 10.1182 151.612 10.1418 151.511 10.1913C151.008 10.4167 150.489 10.5403 149.996 10.1191C150.01 9.65581 149.793 9.79233 149.627 9.79397C149.457 9.8032 149.311 9.82578 149.368 10.1751C149.146 10.1063 148.967 10.3803 148.762 10.3474C148.698 10.3362 148.631 10.1856 148.589 10.0851C148.501 9.86224 148.473 9.92248 148.429 10.1304C148.403 10.264 148.004 10.3223 147.905 10.2469C147.82 10.1781 147.76 9.86567 147.625 10.1813C147.574 10.3015 147.481 10.4828 147.427 10.4637C147.289 10.4271 147.077 10.3211 147.054 10.1902C147.002 9.8039 146.972 9.98906 146.802 10.057C146.541 10.1592 146.29 10.2756 146.04 10.4359C145.934 10.5004 145.834 10.6013 145.733 10.6875C145.754 10.5395 145.795 10.3831 145.791 10.2365C145.789 10.1558 145.718 10.0275 145.669 10.0228C145.61 10.0113 145.524 10.0821 145.487 10.1648C145.408 10.3453 145.35 10.5467 145.286 10.7411C145.057 10.1441 144.816 11.0969 144.592 10.7345C144.4 10.4219 143.949 10.9749 143.874 10.2522C143.873 10.2448 143.737 10.2449 143.674 10.285C143.501 10.3971 143.328 10.5239 143.161 10.6725C142.984 10.8289 143.042 10.5908 143.01 10.4971C142.989 10.4321 142.938 10.3321 142.928 10.3327C142.789 10.4283 142.785 10.8764 142.566 10.7047C142.313 10.5055 142.252 10.6336 142.256 10.9931C142.256 11.0224 142.223 11.0756 142.209 11.0764C141.688 11.156 141.152 11.3906 140.655 11.0283C140.363 10.8166 140.088 10.5744 139.754 10.6806C139.439 10.7784 139.088 10.5772 138.804 10.9596C138.761 11.0207 138.63 11.0425 138.605 10.9998C138.432 10.7081 138.221 10.8737 138.026 10.8769C137.845 10.8794 137.657 10.9703 137.485 10.9209C137.284 10.8657 137.171 11.2536 136.972 11.0808C136.952 11.0599 136.931 11.0316 136.911 11.0033L135.916 11.4536C135.349 11.4036 134.797 11.1765 134.222 11.2149C134.043 10.8869 133.93 11.2674 133.794 11.2895C133.682 11.3029 133.536 10.9143 133.439 10.9416C133.27 10.9948 133.129 11.0318 132.943 11.0051C132.679 10.9681 132.454 10.9582 132.261 10.6383C132.119 10.3963 132.014 10.3212 131.761 10.5698C131.346 10.9741 130.684 11.0393 130.133 11.0618C129.918 11.0734 129.71 11.1287 129.483 11.2511C129.112 11.462 128.659 11.7068 128.275 11.1403C128.225 11.0696 128.054 11.0568 128.021 11.11C127.857 11.4272 127.75 11.2201 127.577 11.1193C127.364 10.9987 127.098 10.6754 126.882 11.267C126.777 11.5591 126.492 11.5084 126.269 11.3516C126.16 11.2767 125.975 10.6627 125.939 11.4282C125.939 11.4355 125.847 11.4625 125.837 11.4337C125.636 10.9894 125.34 11.0642 125.073 11.152C124.855 11.2225 124.627 10.8238 124.426 11.2091C124.224 10.919 124.046 11.2443 123.861 11.2763C123.681 11.3081 123.486 11.1131 123.379 11.1335C123.03 11.2112 122.71 11.3093 122.395 10.9739C122.345 10.9252 122.184 10.9559 122.175 10.9931C122.052 11.5651 121.775 11.0001 121.565 11.1877C121.345 11.3831 121.026 11.3343 120.749 11.3713C120.491 11.4073 120.233 11.4286 119.975 11.4572C119.717 11.4859 119.456 11.5734 119.205 11.5209C119.024 11.4867 118.866 11.1795 118.689 11.1524C118.513 11.1325 118.291 11.4676 118.158 11.394C117.821 11.1993 117.586 11.5498 117.304 11.6238C117.207 11.6511 117.147 11.8085 117.127 11.5526C117.101 11.2677 116.963 11.2384 116.869 11.3684C116.633 11.7042 116.33 11.7132 116.097 11.5643C115.914 11.4421 115.758 11.4725 115.587 11.4671C115.334 11.4661 114.976 11.6396 114.85 11.4556C114.608 11.1016 114.395 11.8106 114.224 11.3867C113.89 11.5222 113.508 11.2639 113.196 11.6772C113.148 11.7385 113.025 11.6645 112.936 11.6472C112.843 11.6229 112.745 11.5989 112.656 11.5596C112.434 11.4688 112.27 11.9476 112.004 11.6536C111.844 11.4714 111.595 11.4849 111.393 11.3784C111.096 11.2255 110.817 11.1892 110.556 11.5117C110.485 11.5963 110.468 11.9276 110.292 11.6949C110.181 11.5467 109.935 11.6628 109.964 11.2354C109.986 10.9112 109.869 10.9175 109.671 11.0163C109.497 11.1065 109.418 11.6688 109.15 11.2941C108.973 11.0394 108.904 11.6158 108.644 11.3729C108.415 11.1504 107.998 11.2757 107.785 11.7938C107.762 11.8538 107.601 11.8551 107.532 11.8002C107.104 11.4709 106.918 11.4443 106.428 11.5516C106.112 11.62 105.798 11.5489 105.474 11.471C104.723 11.2914 104.143 11.1025 103.102 11.6655C102.978 11.4005 102.801 11.7698 102.725 11.6418C102.547 11.3284 102.357 11.3313 102.187 11.5681C101.936 11.9268 101.686 11.6393 101.617 11.4374C101.481 11.0263 101.431 11.1979 101.239 11.3478C100.659 11.805 100.649 11.7762 100.083 11.5572C100.009 11.5245 99.9089 11.4344 99.887 11.3328C99.8377 11.1006 99.7646 11.1045 99.7102 11.2837C99.5878 11.6867 99.421 11.4388 99.2456 11.4556C99.0799 11.4646 98.9316 11.803 98.709 11.6756C98.6743 11.6554 98.6622 11.5533 98.64 11.437C98.6396 11.4224 98.6403 11.4517 98.6412 11.4884C98.6797 11.4642 98.7232 11.4472 98.7565 11.4087C98.7659 11.3935 98.7349 11.3218 98.7239 11.271C98.6955 11.3092 98.6672 11.3474 98.64 11.437C98.3647 11.775 98.0469 11.961 97.7432 11.7058C97.5342 11.5336 97.5251 11.9819 97.3807 11.8576C97.2413 11.7403 97.0109 11.4885 96.9825 11.5267C96.7705 11.8539 96.7315 11.4375 96.637 11.3619C96.4135 11.1977 96.2196 11.2523 96.0036 11.4108C95.7685 11.5851 95.5236 11.7598 95.2668 11.8398C95.0875 11.8936 94.8659 11.3916 94.7025 11.9217C94.4865 11.8673 94.2754 11.8127 94.0593 11.7583C93.7893 11.6922 93.5029 11.3406 93.2609 11.8456C93.0531 11.7247 92.8629 11.7349 92.6303 11.8063C92.3493 11.8949 92.0628 11.3304 91.7156 11.7236C91.6634 11.7852 91.4676 11.5535 91.3385 11.4577C90.9215 11.1572 90.5085 11.0254 90.0682 11.4016C89.9819 11.4724 89.7869 11.27 89.7007 11.3407C89.5714 11.4505 89.4987 11.682 89.3228 11.464C89.2927 11.4289 89.2105 11.4627 89.1625 11.4947C88.7682 11.7509 88.7598 11.8101 88.2664 11.5799C88.0641 11.488 87.8774 12.0635 87.7192 11.5581C87.4657 11.5718 87.207 11.5711 86.9542 11.6142C86.7404 11.6551 86.4833 11.5148 86.321 11.8834C86.3026 11.9284 86.1361 11.9081 86.1254 11.8646C85.9493 11.2207 85.6877 11.5138 85.4235 11.697C85.3514 11.7449 85.2485 11.7285 85.1603 11.7112C85.0671 11.6943 84.9474 11.5833 84.895 11.6375C84.3806 12.1866 83.837 11.9003 83.3297 11.7002C83.0193 11.5775 82.7545 11.5257 82.4873 11.7898C82.3107 11.9609 82.2175 11.9439 82.1804 11.6082C82.1798 11.5788 82.086 11.5325 82.0473 11.5493C81.9601 11.576 81.8268 11.7228 81.7966 11.6803C81.4738 11.2353 81.1929 11.7497 81.1487 11.9503C81.0556 12.3518 80.9548 12.4234 80.8066 12.1377C80.5359 11.6237 80.2664 11.7852 79.9126 11.8924C79.5103 12.017 79.0911 12.0397 78.6481 11.8801C78.2101 11.7276 77.7174 11.9451 77.2879 11.5279C77.248 11.4933 77.1526 11.5866 77.085 11.6196C76.9743 11.6843 76.8169 11.847 76.7571 11.7915C76.443 11.5075 76.0886 11.7983 75.8068 11.6447C75.5003 11.4777 75.2192 11.5664 74.9254 11.5235C74.8079 11.5079 74.7053 11.2932 74.595 11.167C74.5312 11.3613 74.4774 11.5698 74.3985 11.7429C74.366 11.8181 74.2259 11.8771 74.2057 11.8488C73.9578 11.4731 73.6704 11.7089 73.4023 11.7234C73.1342 11.7379 72.8343 11.644 72.6285 12.0296C72.2185 11.6113 71.7542 12.0035 71.3115 11.8586C71.1491 11.8013 70.8649 11.545 70.669 11.9374C70.6365 12.0052 70.4942 11.9762 70.4105 11.944C70.2035 11.8598 70.005 11.7164 69.7985 11.6541C69.5626 11.5861 69.2909 11.8651 69.073 11.5172C68.9682 11.8386 68.6895 11.3984 68.5906 11.7635C68.3773 11.408 68.2338 11.9517 68.0173 11.8753C67.9189 11.8439 67.7523 12.2347 67.726 11.7369C67.7254 11.7076 67.6361 11.6463 67.5974 11.6631C67.1715 11.8183 66.6858 11.4995 66.316 12.1803C66.1758 12.4448 65.8347 12.4706 65.5782 12.5653C65.5491 12.5742 65.4808 12.365 65.4391 12.2498C65.4076 12.156 65.3904 12.0468 65.3683 11.9379C65.3161 11.9995 65.2539 12.0542 65.2166 12.1297C65.1325 12.2884 64.9449 12.4087 64.8235 12.4373C64.7363 12.464 64.312 12.2667 64.6752 12.7757C64.5588 13.0169 64.2119 12.999 64.0645 12.75C63.9478 12.5581 63.8403 12.3436 63.7049 12.1894C63.6497 12.1263 63.5135 12.1411 63.4514 12.2031C63.1456 12.484 62.8713 12.4401 62.5446 12.2449C62.2772 12.0831 61.9523 11.7557 61.6519 12.2712C61.5956 12.3696 61.3955 12.3658 61.3011 12.2975C61.0232 12.0996 60.8189 12.1327 60.5519 12.4041C60.3708 12.5901 60.0693 12.4302 59.8881 12.8218C59.7256 13.183 59.7483 12.6899 59.714 12.6844C59.396 12.6502 59.1301 12.1286 58.7634 12.5229C58.5347 12.7629 58.2524 12.8002 57.9837 12.5798C57.8097 12.4424 57.6436 12.4367 57.5131 12.7007C57.2101 13.3118 56.7635 12.9982 56.3806 13.1144C56.253 12.4532 55.9008 12.8393 55.6492 12.7281C55.4717 12.6496 55.3725 12.5816 55.247 12.8527C55.1076 13.1539 54.8884 13.1731 54.7311 12.9173C54.4573 12.4769 54.0505 12.822 53.7646 12.4924C53.6234 12.9258 53.438 12.5101 53.2726 12.5337C53.0828 12.5586 52.8852 12.4592 52.6904 12.4771C52.5685 12.4837 52.445 12.6299 52.3233 12.6438C52.2016 12.6577 52.062 12.5331 51.9508 12.5758C51.341 12.7997 50.7395 12.9571 50.1081 12.6756C49.901 12.584 49.6339 12.6425 49.4216 12.7494C49.1998 12.8642 49.0335 12.2198 48.8153 12.7015C48.806 12.724 48.6433 12.652 48.6024 12.5735C48.3825 12.1449 48.0085 12.6423 47.7846 12.2506C47.7658 12.281 47.7569 12.3182 47.7329 12.3342C47.4074 12.6088 47.378 12.603 47.1055 12.2213C47.0753 12.1789 46.9914 12.1394 46.9677 12.17C46.4918 12.695 46.2987 12.7862 45.828 12.6942C45.7594 12.6833 45.6869 12.7166 45.6192 12.7423C45.4787 12.7866 45.521 13.3496 45.2501 13.0339C45.0646 12.8237 44.9992 13.1576 44.874 13.2304C44.8211 13.2627 44.6777 13.1823 44.677 13.153C44.6807 12.6829 44.4511 12.8862 44.3032 12.8208C44.2193 12.7813 44.1703 12.5637 44.1035 12.4205C44.0582 12.5698 44.0202 12.8288 43.9572 12.8469C43.7678 12.8865 43.5893 12.9769 43.3756 12.8123C43.0326 12.5445 42.6464 12.3084 42.2767 12.7836C42.0113 12.497 41.8559 12.7403 41.6871 13.0358C41.6355 13.1267 41.4882 13.0906 41.417 13.1752C41.1419 13.5205 40.905 12.7771 40.5772 13.1619C40.392 13.3849 40.0393 13.3305 39.7661 13.338C39.5809 13.348 39.3791 13.2781 39.2058 13.1701C39.0126 13.0484 38.9183 13.6114 38.7005 13.2708C38.5739 13.0721 38.4361 13.6522 38.2038 13.3197C38.1078 13.1781 37.7036 13.222 37.6245 13.3878C37.4011 13.8551 37.2215 13.4757 37.0396 13.4194C36.7445 13.3253 37.0874 13.1672 37.0364 13.0745C36.9959 13.0106 36.858 12.9594 36.8392 12.9898C36.5726 13.4887 36.0845 13.0673 35.8226 13.5587C35.5959 13.2553 35.2981 13.4623 35.0506 13.3141C34.6545 13.0713 34.2379 13.2113 33.8608 13.3638C33.1548 13.6517 32.8175 13.6259 32.0402 13.5725C31.4291 13.5321 30.7674 13.4138 30.1841 13.9372C30.1268 13.9917 29.9957 14.0208 29.9652 13.9711C29.6819 13.5386 29.2703 13.6783 28.9474 13.4388C28.9027 13.4045 28.8714 13.3181 28.8268 13.2912C28.7379 13.2446 28.5992 13.1566 28.5516 13.2106C28.2103 13.6476 27.7605 12.9818 27.4828 13.4226C27.3746 13.5974 27.2993 13.7189 27.1509 13.8444C26.6533 14.2751 26.1121 14.0915 25.5925 14.2077C25.5391 14.2179 25.4739 13.9351 25.3888 13.8443C25.3587 13.8092 25.2544 13.9397 25.1823 13.9876C25.1104 13.4115 24.823 13.6473 24.598 13.6301C24.3292 13.6153 24.0701 13.8055 23.7901 13.5197C23.6253 13.3597 23.1404 13.709 23.5182 12.9544C23.5181 12.947 23.4668 12.8397 23.4374 12.8339C23.3932 12.8216 23.3402 12.8539 23.2916 12.8638C23.389 13.4826 22.7265 13.122 22.8037 13.7125C22.6812 13.6898 22.5306 13.72 22.4356 13.6223C22.2906 13.476 22.2114 13.4289 22.0902 13.6704C22.0248 13.7987 21.8951 13.8865 21.7838 13.9292C21.4742 14.0488 21.1179 13.8405 20.8547 14.2732C20.8406 14.296 20.7967 14.2984 20.7815 14.2771C20.2814 13.7609 20.0052 14.2678 19.7146 14.7827C19.6771 14.8508 19.54 14.8289 19.4563 14.7967C19.274 14.7258 19.0956 14.6107 18.9134 14.5398C18.736 14.4686 18.5852 14.4914 18.4395 14.7343C18.355 14.8783 18.2172 14.8271 18.1766 14.5503C18.165 14.4701 18.0308 14.3673 17.9627 14.3783C17.8363 14.3998 17.7173 14.5311 17.5909 14.5526C17.4789 14.566 17.2896 14.4 17.252 14.4608C17.0079 14.8778 16.7596 14.4874 16.5216 14.537C16.3372 14.5837 16.1982 14.0626 15.983 14.4634C15.9642 14.4938 15.7121 14.1477 15.6007 14.1831C15.344 14.2704 15.1104 14.5106 14.8322 14.511C14.7981 14.5128 14.7717 14.6391 14.7287 14.6781C14.4559 14.9131 14.1531 14.4816 13.961 14.6169C13.6919 14.8003 13.4865 14.9949 13.2072 14.7384C13.1872 14.7175 13.1671 14.6892 13.1469 14.6609C12.9766 15.1033 12.7743 14.593 12.5768 14.7064C12.3987 14.8115 12.218 14.8066 12.0427 15.0364C11.7394 15.4272 11.3606 15.7193 10.9503 15.2864C10.7501 15.0696 10.6519 15.0455 10.6136 15.4955C10.5945 15.7241 10.4286 15.7257 10.3223 15.5626C9.99783 15.0442 9.62218 15.2628 9.26401 15.3923C9.03172 15.4783 8.82097 15.6512 8.59458 15.7809C8.5608 15.7974 8.50249 15.8079 8.48735 15.7867C8.26177 15.3217 7.92596 15.5748 7.65041 15.4796C7.30593 15.3587 7.01182 15.5142 6.69179 15.6049C6.35243 15.704 5.99317 15.5766 5.67945 15.9387C5.58922 16.0463 5.35907 16.0147 5.24944 15.9179C5.08482 15.7653 4.98679 15.7485 4.86516 15.9754C4.8277 16.0435 4.7163 16.0789 4.6667 16.0449C4.22415 15.6944 3.79555 15.9452 3.35937 16.0789C3.22373 16.1229 3.06535 16.0287 2.93168 15.9478C2.90697 15.9345 2.91077 15.6773 2.94738 15.5726C2.97946 15.4827 3.07606 15.4408 3.14294 15.3784C3.04494 15.3617 2.94609 15.3083 2.85415 15.3427C2.49059 15.4504 2.46658 15.4664 2.38339 15.0378C2.34432 14.827 2.34054 14.6657 2.16085 14.7047C2.14623 14.7055 2.0993 14.5759 2.10751 14.5094C2.13901 14.1847 2.18531 13.8664 2.22185 13.5488C2.29527 12.9281 2.48675 12.558 2.8332 12.5539C3.09191 12.5546 3.17594 12.3885 3.22693 12.0627C3.24404 11.959 3.32818 11.8003 3.37239 11.8126C3.84276 11.8899 4.08508 11.1867 4.49774 11.0909C4.51723 11.0899 4.53021 11.0157 4.54953 11.0074C4.77224 10.9292 4.88831 11.7232 5.14466 11.2028C5.30777 10.8709 5.50695 10.8307 5.74077 10.8107C6.28137 10.7595 6.8216 10.6935 7.36202 10.6349C7.44002 10.6307 7.52679 10.5819 7.59118 10.6225C7.66062 10.6701 7.70285 10.8074 7.7681 10.8846C7.80325 10.9267 7.87758 10.9741 7.90631 10.9505C8.1493 10.6951 8.39867 10.5054 8.71519 10.4736C8.95405 10.4607 9.84561 10.3904 10.0966 10.4796C10.1655 10.5052 10.2937 10.557 10.2982 10.5421C10.4287 10.0652 10.6935 10.7483 10.8413 10.3879C10.9567 10.1027 11.0964 10.2346 11.213 10.4192C11.3801 10.6818 11.4837 10.7276 11.4878 10.2722C11.4869 10.2355 11.6313 10.1469 11.6807 10.1736C11.8391 10.2678 12.0025 10.3691 12.1283 10.5312C12.3145 10.7707 12.4172 10.1485 12.6297 10.4747C12.7207 10.6093 13.0333 10.4088 13.1243 10.5434C13.3519 10.8835 13.3769 10.2801 13.5652 10.402C13.808 10.5578 14.0728 10.6095 14.3554 10.5869C14.6478 10.571 14.9051 10.3002 15.2351 10.4291C15.5404 10.5448 15.8974 10.3639 16.2341 10.3604C16.6048 10.3477 16.9712 10.1517 17.3487 10.4322C17.428 10.4867 17.6559 10.2101 17.9012 10.4758C17.9505 10.4951 17.9202 10.4527 17.8997 10.4098C17.8762 10.4478 17.8575 10.4855 17.834 10.5235C17.8641 10.5585 17.8991 10.5933 17.9337 10.6135C17.9386 10.6132 17.9619 10.5679 17.9061 10.4755C17.8929 10.3294 17.9485 10.2016 18.0209 10.1683C18.2628 10.0744 18.5055 10.0172 18.7479 9.94539C18.7674 9.94433 18.7809 9.89221 18.7997 9.86183C19.239 10.4915 19.7077 9.87143 20.1583 9.93515C20.2122 9.94691 20.2896 10.1263 20.3021 10.2431C20.3324 10.4984 20.2977 10.6838 20.5403 10.4137C20.6593 10.2825 21.0378 9.97566 21.1122 10.6544C21.1653 10.6295 21.2185 10.612 21.2716 10.5871C21.5856 10.4453 21.8947 10.3037 22.213 10.5581C22.2529 10.5927 22.3124 10.6335 22.3509 10.6094C22.4811 10.5436 22.6093 10.3899 22.7362 10.3903C22.7996 10.3869 22.867 10.765 22.9303 10.7616C23.1497 10.7497 23.3984 10.7363 23.5799 10.5649C23.7662 10.3933 23.8609 10.4763 23.9626 10.6544C24.0896 10.8677 24.1883 10.9138 24.2938 10.6218C24.3579 10.4421 24.4221 10.4753 24.5699 10.5334C24.8801 10.6488 25.2172 10.6599 25.4493 10.1481C25.556 9.90737 25.7081 9.94319 25.7504 10.2933C25.7568 10.359 25.8068 10.4077 25.8325 10.4651C26.0461 9.78541 26.5401 10.6691 26.6425 10.245C26.7849 9.64999 27.0621 9.81853 27.2205 9.91275C27.7005 10.1951 28.1813 10.3013 28.6753 10.135C28.8738 10.0656 29.0294 10.4609 29.2655 10.1178C29.393 9.93468 29.7207 9.96101 29.9372 10.0374C30.0996 10.0947 30.2455 10.0721 30.4021 10.0857C30.627 10.1028 30.8554 10.0611 31.0718 10.1302C31.3867 10.2379 31.7229 10.4253 32.0158 10.2186C32.1743 10.1072 32.3077 9.96785 32.4883 9.96542C32.7712 9.95746 33.0551 9.575 33.3429 9.98526C33.3681 10.0206 33.4502 9.97945 33.5033 9.95455C33.5952 9.92021 33.692 9.8856 33.7784 9.82219C34.0948 9.57747 34.3983 10.2438 34.7021 9.875C34.9728 9.55199 35.3105 9.79802 35.5745 9.60753C35.8385 9.41704 35.9933 9.98867 36.2746 9.7018C36.4654 9.50794 36.7542 9.5437 36.9964 9.46452C37.3063 9.35964 37.6156 9.22544 37.9259 9.13523C38.2458 9.03716 38.5663 8.96843 38.8867 8.89236C38.9401 8.88212 39.0278 8.87737 39.0484 8.92031C39.2127 9.27117 39.45 9.19225 39.674 9.16545C39.8688 9.14757 40.0669 9.06343 40.2289 9.31163C40.334 9.00492 40.5418 9.12583 40.701 9.0438C41.1156 8.82313 41.5413 9.28466 41.949 8.97627C42.1009 9.21033 42.3009 9.20685 42.4181 9.00228C42.5962 8.68428 42.7133 9.30935 42.8579 9.02253C43.0489 8.63042 43.3226 9.27638 43.5568 8.85256C43.7582 8.48925 44.0476 8.75992 44.3138 8.87033C44.4615 8.92841 44.6463 8.89639 44.8074 8.68944C44.9306 8.5286 45.1845 8.32397 45.2461 8.87128C45.2523 8.92968 45.366 8.9896 45.4246 8.99377C45.6541 8.99603 45.9771 8.82438 46.0932 8.98696C46.275 9.24877 46.4662 8.65842 46.5593 9.09389C46.7134 9.00479 46.8676 8.91569 47.0215 8.81925C47.1563 8.73854 47.4255 8.98094 47.3991 8.47578C47.3979 8.42446 47.4979 8.31626 47.5563 8.30576C47.8139 8.26245 48.0758 8.18955 48.3256 8.22742C48.5265 8.2606 48.6716 7.78287 48.909 8.12977C48.9494 8.18632 49.1536 7.94034 49.2944 7.91069C49.4158 7.8821 49.6438 8.03128 49.6572 7.97916C49.7662 7.6282 49.8854 8.13568 50.0026 7.9311C50.1668 7.64323 50.3087 7.65758 50.3288 8.10434C50.3307 8.185 50.3373 8.25806 50.3391 8.33872C50.3475 8.69802 50.4025 8.75378 50.5664 8.45857C50.6227 8.36008 50.7878 8.32178 50.791 8.24819C50.8146 7.58615 51.1676 8.07363 51.3194 7.88188C51.5977 8.30732 51.9247 8.30432 52.3063 8.3424C52.8005 8.39642 53.2787 8.81105 53.7913 8.3942C53.8343 8.35516 53.954 8.46615 54.0095 8.54391C54.2167 8.84839 54.3928 9.07381 54.7013 8.69736C54.8342 8.53599 55.1004 8.6464 55.3043 8.59866C55.7218 8.50265 56.1701 8.68396 56.5455 8.24516C56.6121 8.16814 56.7872 8.14398 56.8425 8.21441C57.1094 8.56706 57.3934 8.1846 57.6794 8.30861C58 8.45279 58.3565 8.24995 58.662 7.95443C58.8625 7.76004 59.0838 7.62325 59.2998 7.46473L59.3011 7.31048ZM205.466 8.54918C205.44 8.5065 205.415 8.46382 205.385 8.42141C205.361 8.45939 205.342 8.49711 205.319 8.53509C205.349 8.57018 205.384 8.60499 205.419 8.62514C205.424 8.62488 205.447 8.57956 205.248 8.43613C205.273 8.43481 205.292 8.43376 205.317 8.43244C205.301 8.37457 205.289 8.3091 205.264 8.25909C205.254 8.24496 205.206 8.29159 205.172 8.3081C205.198 8.35078 205.223 8.39345 205.466 8.54918ZM153.848 8.28808C153.975 8.28122 154.029 8.27832 154.072 8.26128C154.125 8.23638 154.168 8.18268 154.216 8.13605C154.18 8.08656 154.145 8.03708 154.105 7.98786C154.07 7.93838 154.028 7.84517 153.994 7.84701C153.858 7.86907 153.727 7.91285 153.597 7.96397C153.587 7.9645 153.582 8.15567 153.601 8.16195C153.706 8.22973 153.814 8.26793 154.372 8.36251C154.347 8.31983 154.322 8.27716 154.291 8.23474C154.268 8.27273 154.249 8.31045 154.226 8.34843C154.256 8.38351 154.291 8.41832 154.325 8.43847C154.33 8.43821 154.354 8.39289 153.848 8.28074L153.848 8.28808ZM129.226 8.37966C129.196 8.35191 129.125 8.24562 129.057 8.24198C128.969 8.23206 128.814 8.26984 128.796 8.34422C128.724 8.63441 128.688 8.95208 128.656 9.26216C128.657 9.29882 128.767 9.42501 128.806 9.40824C129.033 9.30051 129.246 8.81909 129.226 8.37233L129.226 8.37966ZM212.713 7.2613C212.711 7.15131 212.708 7.03399 212.696 6.92453C212.689 6.8588 212.658 6.79439 212.642 6.72919C212.61 6.79702 212.582 6.87193 212.544 6.92537C212.431 7.08569 212.312 7.2316 212.209 7.40605C212.176 7.45923 212.165 7.62867 212.18 7.63521C212.374 7.79357 212.725 7.53967 212.723 7.26077L212.713 7.2613ZM127.435 9.86418C127.439 10.0182 127.442 10.1648 127.46 10.318C127.467 10.3837 127.507 10.433 127.538 10.49C127.557 10.467 127.581 10.451 127.585 10.4287C127.638 10.1983 127.701 9.96726 127.73 9.73077C127.738 9.66425 127.648 9.56634 127.597 9.48832C127.562 9.43151 127.522 9.38962 127.486 9.34014C127.463 9.40012 127.426 9.46089 127.422 9.52714C127.415 9.63766 127.428 9.75446 127.435 9.86418ZM37.793 12.0278C37.7443 12.0304 37.6855 12.0189 37.6423 12.0506C37.5846 12.0904 37.5226 12.1525 37.4902 12.2277C37.4717 12.2727 37.5032 12.3665 37.5145 12.4319C37.5676 12.407 37.6156 12.3751 37.6736 12.3499C37.7898 12.3069 37.9111 12.2783 38.022 12.2209C38.0461 12.205 38.0637 12.1232 38.0721 12.0641C38.0718 12.0494 38.0362 11.9926 38.0167 11.9936C37.9436 11.9976 37.8656 12.0018 37.7927 12.0131L37.793 12.0278ZM6.16989 14.7815C6.03639 14.7079 5.96159 14.6386 5.88847 14.6425C5.84947 14.6446 5.77592 14.8395 5.78618 14.861C5.83715 14.9537 5.90745 15.038 5.98142 15.0707C6.01101 15.0837 6.06628 14.9413 6.16507 14.7817L6.16989 14.7815ZM18.5559 10.9249C18.6849 11.0134 18.7653 11.1118 18.7938 11.0809C18.8557 11.0115 18.892 10.892 18.9432 10.7865C18.8882 10.7307 18.8221 10.6168 18.7836 10.6409C18.7112 10.6742 18.6601 10.7871 18.5559 10.9249ZM38.725 11.5956C38.6554 11.5406 38.595 11.4631 38.5759 11.4788C38.4614 11.5951 38.3573 11.7329 38.2481 11.8636C38.2879 11.8982 38.3483 11.9757 38.3673 11.9526C38.4869 11.8507 38.5963 11.7273 38.725 11.5956ZM109.823 10.0169C109.985 9.80998 110.032 9.76334 110.065 9.70284C110.102 9.6274 110.125 9.53809 110.152 9.45585C110.083 9.43754 109.974 9.37735 109.956 9.4224C109.904 9.5133 109.898 9.66048 109.823 10.0169ZM207.815 6.939C207.89 6.8248 207.956 6.71111 208.022 6.60476C207.958 6.57153 207.853 6.48908 207.835 6.52679C207.778 6.61795 207.762 6.75099 207.736 6.87723C207.736 6.88456 207.8 6.92513 207.82 6.93874L207.815 6.939ZM153.885 9.23319C153.951 9.11218 154.011 8.99876 154.072 8.88534C154.027 8.83639 153.947 8.74528 153.937 8.75314C153.881 8.83697 153.829 8.94252 153.798 9.04703C153.789 9.07688 153.849 9.15438 153.885 9.23319ZM208.964 8.27179C209.029 8.12878 209.089 7.98603 209.149 7.85061C209.105 7.83099 209.04 7.76843 209.021 7.79148C208.964 7.8753 208.913 7.97353 208.877 8.08562C208.867 8.11548 208.923 8.19324 208.959 8.27205L208.964 8.27179ZM172.737 8.45538C172.695 8.3255 172.653 8.20296 172.616 8.07282C172.593 8.16946 172.552 8.27449 172.559 8.36955C172.572 8.50834 172.619 8.63795 172.651 8.76836C172.678 8.67145 172.705 8.57454 172.742 8.45511L172.737 8.45538ZM25.8643 12.4603C25.9061 12.37 25.9626 12.2788 25.9893 12.1672C26.0029 12.1224 25.9571 12.0442 25.936 11.9792C25.8557 12.0937 25.7753 12.2008 25.6901 12.3156C25.73 12.3501 25.7698 12.3847 25.8643 12.4603ZM97.9935 10.7158C97.9458 10.7624 97.8836 10.8172 97.8263 10.8717C97.8662 10.9062 97.9118 10.9772 97.9506 10.9677C98.0136 10.9496 98.0756 10.8876 98.138 10.8401C98.0981 10.8056 98.0583 10.771 97.9986 10.7229L97.9935 10.7158ZM48.1097 8.59885C48.2249 8.51186 48.2631 8.48042 48.3063 8.44872C48.2613 8.39976 48.2159 8.33614 48.1666 8.31678C48.1322 8.30396 48.085 8.3726 48.0466 8.40404C48.0729 8.48338 48.0991 8.56272 48.1146 8.59859L48.1097 8.59885ZM37.2489 12.138C37.2489 12.138 37.2803 12.0188 37.288 11.9303C37.2877 11.9156 37.1984 11.8544 37.1646 11.8709C37.1164 11.8955 37.0793 11.9783 37.0366 12.032C37.081 12.0516 37.1255 12.0786 37.2489 12.138ZM32.9475 10.8216C32.9228 10.8082 32.8684 10.7818 32.8091 10.7483C32.796 10.8151 32.7587 10.8905 32.7697 10.9413C32.786 11.0139 32.841 11.0696 32.8766 11.1338C32.8897 11.067 32.9077 11 32.9475 10.8216ZM32.4574 11.575C32.5151 11.748 32.536 11.8056 32.557 11.8706C32.5896 11.8027 32.6319 11.7344 32.6448 11.6603C32.6534 11.6084 32.6078 11.5374 32.5869 11.4798C32.5342 11.5194 32.4814 11.559 32.4575 11.5823L32.4574 11.575ZM25.1803 12.0128C25.1872 11.8876 25.1992 11.7768 25.1921 11.6818C25.1915 11.6524 25.1274 11.6265 25.0927 11.6064C25.0805 11.7098 25.0585 11.8138 25.0609 11.9165C25.0616 11.9458 25.1257 11.9717 25.1854 12.0198L25.1803 12.0128ZM24.65 11.667C24.65 11.667 24.6814 11.5479 24.6891 11.4594C24.6888 11.4447 24.5995 11.3834 24.5657 11.4C24.5175 11.4246 24.4803 11.5074 24.4377 11.5611C24.482 11.5807 24.5266 11.6076 24.65 11.667ZM211.189 7.19695C211.164 7.1836 211.11 7.15717 211.051 7.12367C211.037 7.19046 211 7.2659 211.011 7.3167C211.027 7.38923 211.082 7.44499 211.118 7.50914C211.131 7.44235 211.149 7.3753 211.189 7.19695ZM210.65 6.69016C210.698 6.64352 210.76 6.58876 210.817 6.53427C210.777 6.49972 210.732 6.42877 210.698 6.43795C210.63 6.4563 210.573 6.51813 210.51 6.56556C210.55 6.60011 210.59 6.63466 210.655 6.68256L210.65 6.69016ZM206.35 7.97269C206.408 8.14577 206.429 8.20338 206.45 8.26832C206.483 8.20048 206.525 8.13211 206.538 8.058C206.546 8.00614 206.501 7.93519 206.48 7.87758C206.427 7.91715 206.374 7.95671 206.351 7.98003L206.35 7.97269ZM201.202 6.96646C201.161 6.88791 201.135 6.79391 201.115 6.79497C201.047 6.80599 200.985 6.85341 200.917 6.88644C200.938 6.93671 200.959 7.02365 200.984 7.02233C201.052 7.01864 201.119 6.98561 201.202 6.95913L201.202 6.96646ZM199.957 7.17331C200.005 7.12668 200.067 7.07192 200.125 7.01743C200.085 6.98288 200.039 6.91193 200.005 6.92111C199.937 6.93946 199.88 7.00129 199.818 7.04871C199.858 7.08326 199.897 7.11782 199.962 7.16572L199.957 7.17331ZM196.536 6.55085C196.619 6.56103 196.693 6.57907 196.756 6.56831C196.775 6.56725 196.793 6.47087 196.806 6.41875C196.737 6.40045 196.668 6.36748 196.6 6.37118C196.581 6.37223 196.563 6.46861 196.531 6.55845L196.536 6.55085ZM193.47 7.34083C193.523 7.3306 193.586 7.31983 193.586 7.3125C193.589 7.20958 193.581 7.10719 193.569 7.00506L193.472 7.01034C193.464 7.11352 193.467 7.21618 193.464 7.33376L193.47 7.34083ZM182.225 6.56167C182.273 6.51504 182.335 6.46029 182.392 6.40579C182.353 6.37124 182.307 6.30029 182.273 6.30946C182.21 6.32756 182.148 6.39698 182.086 6.43707C182.125 6.47163 182.165 6.50618 182.225 6.55434L182.225 6.56167ZM175.771 8.18838C175.778 8.0632 175.79 7.95242 175.783 7.85736C175.783 7.82803 175.718 7.80213 175.684 7.78198C175.672 7.88542 175.65 7.9894 175.652 8.09206C175.653 8.12139 175.717 8.14729 175.776 8.19545L175.771 8.18838ZM184.841 8.43912C184.862 8.48206 184.882 8.53234 184.903 8.58261C184.917 8.55249 184.95 8.52131 184.95 8.49931C184.939 8.44851 184.913 8.3985 184.893 8.34823C184.879 8.37835 184.86 8.40141 184.841 8.43912ZM184.184 8.07825C184.184 8.07825 184.143 8.00703 184.128 8.00782C184.094 8.02434 184.061 8.06284 184.028 8.09402C184.048 8.11496 184.068 8.16524 184.083 8.16444C184.117 8.14793 184.15 8.10943 184.184 8.07825ZM206.525 7.27314C206.525 7.27314 206.565 7.32236 206.585 7.35064C206.598 7.29852 206.621 7.24587 206.625 7.18695C206.624 7.16495 206.59 7.13746 206.575 7.11626C206.556 7.16864 206.543 7.22076 206.525 7.27314ZM180.532 7.63709C180.532 7.63709 180.565 7.57659 180.584 7.5462C180.549 7.52605 180.514 7.49123 180.475 7.48601C180.46 7.4868 180.442 7.53919 180.428 7.56197C180.463 7.58946 180.497 7.60961 180.532 7.63709ZM178.327 7.88125C178.36 7.85007 178.389 7.81915 178.422 7.78798C178.402 7.76703 178.381 7.71676 178.367 7.71755C178.333 7.73407 178.3 7.77258 178.266 7.80375C178.286 7.82469 178.302 7.85323 178.327 7.88125ZM207.57 6.89353C207.57 6.89353 207.529 6.82232 207.515 6.82311C207.481 6.83962 207.448 6.87813 207.414 6.90931C207.434 6.93025 207.455 6.98052 207.469 6.97973C207.503 6.96322 207.536 6.92471 207.57 6.89353ZM168.568 9.0774C168.589 9.12767 168.609 9.17061 168.63 9.22089C168.644 9.19076 168.678 9.15959 168.677 9.13759C168.666 9.08679 168.641 9.03678 168.62 8.98651C168.606 9.01663 168.587 9.03968 168.568 9.0774ZM166.944 9.13591C166.944 9.13591 166.977 9.0754 166.996 9.04502C166.961 9.02487 166.926 8.99005 166.887 8.98483C166.872 8.98562 166.854 9.038 166.84 9.06079C166.875 9.08827 166.909 9.10843 166.944 9.13591ZM160.089 7.97977C160.068 7.92949 160.048 7.88655 160.027 7.83628C160.013 7.8664 159.98 7.89758 159.98 7.91957C159.991 7.97038 160.017 8.02038 160.037 8.07066C160.051 8.04054 160.07 8.01748 160.089 7.97977ZM158.669 7.60138C158.669 7.60138 158.629 7.55216 158.609 7.52388C158.596 7.576 158.572 7.62865 158.569 7.68757C158.569 7.70957 158.604 7.73706 158.619 7.75826C158.638 7.70588 158.651 7.65376 158.669 7.60138ZM158.61 8.61043C158.61 8.61043 158.65 8.65964 158.67 8.68792C158.684 8.6358 158.707 8.58315 158.71 8.52423C158.71 8.50223 158.675 8.47475 158.66 8.45354C158.642 8.50592 158.628 8.55804 158.61 8.61043ZM154.332 9.3705C154.366 9.33933 154.394 9.30842 154.428 9.27724C154.408 9.2563 154.387 9.20602 154.373 9.20682C154.339 9.22333 154.305 9.26183 154.272 9.29301C154.292 9.31395 154.307 9.34249 154.332 9.3705ZM153.768 9.66534C153.768 9.66534 153.801 9.60484 153.82 9.57445C153.785 9.5543 153.75 9.51948 153.711 9.51426C153.696 9.51505 153.678 9.56743 153.664 9.59022C153.699 9.61771 153.733 9.63786 153.768 9.66534ZM209.813 7.84407C209.813 7.84407 209.853 7.89329 209.873 7.92156C209.887 7.86944 209.91 7.8168 209.913 7.75787C209.913 7.73587 209.878 7.70839 209.863 7.68718C209.845 7.73957 209.831 7.79169 209.818 7.84381L209.813 7.84407ZM153.015 8.53143C153.015 8.53143 153.055 8.58065 153.075 8.60893C153.088 8.55681 153.112 8.50415 153.115 8.44523C153.115 8.42323 153.08 8.39575 153.065 8.37454C153.046 8.42693 153.033 8.47905 153.015 8.53143ZM148.826 7.4439C148.826 7.4439 148.873 7.3826 148.873 7.3606C148.862 7.3098 148.836 7.2598 148.816 7.20952C148.802 7.23964 148.768 7.27082 148.769 7.29282C148.78 7.34362 148.805 7.39363 148.826 7.4439ZM148.556 9.49218C148.556 9.49218 148.596 9.5414 148.617 9.56967C148.63 9.51755 148.653 9.4649 148.657 9.40598C148.656 9.38398 148.621 9.3565 148.606 9.33529C148.588 9.38768 148.575 9.43979 148.556 9.49218ZM148.49 8.96713C148.49 8.96713 148.45 8.91791 148.43 8.88964C148.417 8.94176 148.393 8.99441 148.39 9.05333C148.39 9.07533 148.425 9.10281 148.44 9.12402C148.459 9.07164 148.472 9.01951 148.49 8.96713ZM200.451 8.46812C200.451 8.46812 200.484 8.40761 200.503 8.37723C200.468 8.35708 200.433 8.32226 200.394 8.31703C200.379 8.31783 200.361 8.37021 200.347 8.393C200.382 8.42049 200.416 8.44064 200.451 8.46812ZM200.255 6.53316C200.255 6.53316 200.214 6.46195 200.199 6.46274C200.166 6.47925 200.132 6.51776 200.099 6.54893C200.119 6.56988 200.14 6.62015 200.154 6.61936C200.188 6.60285 200.221 6.56434 200.255 6.53316ZM141.049 9.90574C141.049 9.90574 141.082 9.84523 141.101 9.81485C141.066 9.7947 141.031 9.75988 140.992 9.75466C140.977 9.75545 140.959 9.80783 140.945 9.83062C140.98 9.8581 141.014 9.87825 141.049 9.90574ZM198.033 7.13059C198.033 7.13059 198.081 7.06929 198.08 7.0473C198.069 6.9965 198.044 6.94649 198.023 6.89621C198.009 6.92633 197.976 6.95751 197.976 6.97951C197.987 7.03031 198.013 7.08032 198.033 7.13059ZM211.464 6.66077C211.485 6.71104 211.506 6.75398 211.526 6.80426C211.54 6.77413 211.574 6.74296 211.573 6.72096C211.562 6.67016 211.537 6.62015 211.516 6.56988C211.502 6.6 211.483 6.62305 211.464 6.66077ZM132.02 7.81736C132.02 7.81736 132.06 7.86658 132.08 7.89486C132.093 7.84274 132.117 7.79009 132.12 7.73117C132.12 7.70917 132.085 7.68168 132.07 7.66048C132.051 7.71286 132.038 7.76498 132.024 7.8171L132.02 7.81736ZM116.403 11.2688C116.403 11.2688 116.45 11.2075 116.45 11.1855C116.439 11.1347 116.413 11.0847 116.392 11.0344C116.378 11.0645 116.345 11.0957 116.345 11.1177C116.356 11.1685 116.382 11.2185 116.403 11.2688ZM105.936 11.1744C105.936 11.1744 105.976 11.2236 105.996 11.2519C106.01 11.1998 106.033 11.1471 106.036 11.0882C106.036 11.0662 106.001 11.0387 105.986 11.0175C105.967 11.0699 105.954 11.122 105.936 11.1744ZM100.101 8.16425C100.101 8.16425 100.149 8.10295 100.148 8.08095C100.137 8.03015 100.112 7.98014 100.091 7.92987C100.077 7.95999 100.044 7.99117 100.044 8.01317C100.055 8.06397 100.081 8.11398 100.101 8.16425ZM94.3765 11.3373C94.3765 11.3373 94.4093 11.2768 94.4282 11.2464C94.3935 11.2263 94.3585 11.1915 94.3193 11.1863C94.3047 11.187 94.2864 11.2394 94.2723 11.2622C94.3071 11.2897 94.3417 11.3099 94.3765 11.3373ZM195.37 8.24384C195.37 8.24384 195.329 8.17262 195.314 8.17341C195.281 8.18993 195.247 8.22843 195.214 8.25961C195.234 8.28055 195.255 8.33083 195.269 8.33004C195.303 8.31353 195.336 8.27502 195.37 8.24384ZM194.61 8.13074C194.61 8.13074 194.651 8.17996 194.671 8.20824C194.684 8.15612 194.708 8.10347 194.711 8.04454C194.711 8.02255 194.676 7.99506 194.661 7.97386C194.642 8.02624 194.629 8.07836 194.61 8.13074ZM207.145 8.14261C207.124 8.09233 207.104 8.04939 207.083 7.99912C207.069 8.02924 207.036 8.06042 207.036 8.08242C207.047 8.13322 207.073 8.18323 207.094 8.2335C207.107 8.20338 207.126 8.18033 207.145 8.14261ZM52.6577 9.18238C52.6577 9.18238 52.6905 9.12187 52.7093 9.09148C52.6747 9.07133 52.6396 9.03652 52.6005 9.0313C52.5859 9.03209 52.5676 9.08447 52.5535 9.10726C52.5883 9.13474 52.6229 9.1549 52.6577 9.18238ZM49.1329 8.52146C49.1536 8.57173 49.1741 8.61467 49.1948 8.66495C49.2088 8.63482 49.2422 8.60365 49.2417 8.58165C49.2307 8.53085 49.2052 8.48084 49.1845 8.43057C49.1706 8.46069 49.1516 8.48374 49.1329 8.52146ZM47.1746 9.73604C47.1746 9.73604 47.2148 9.78526 47.235 9.81353C47.2485 9.76141 47.2716 9.70877 47.2751 9.64984C47.2746 9.62785 47.2398 9.60036 47.2247 9.57915C47.2064 9.63154 47.1929 9.68366 47.1746 9.73604ZM43.4277 9.38816C43.4484 9.43843 43.4689 9.48137 43.4896 9.53164C43.5036 9.50152 43.537 9.47034 43.5365 9.44835C43.5256 9.39755 43.5 9.34753 43.4793 9.29726C43.4654 9.32738 43.4464 9.35044 43.4277 9.38816ZM190.559 8.30595C190.559 8.30595 190.518 8.23474 190.503 8.23553C190.469 8.25204 190.436 8.29055 190.403 8.32173C190.423 8.34267 190.443 8.39294 190.458 8.39215C190.492 8.37564 190.525 8.33713 190.559 8.30595ZM190.243 6.09109C190.243 6.09109 190.276 6.03058 190.295 6.0002C190.26 5.98004 190.225 5.94523 190.186 5.94C190.172 5.9408 190.153 5.99318 190.139 6.01597C190.174 6.04345 190.209 6.0636 190.243 6.08376L190.243 6.09109ZM39.9429 12.7557C39.9095 12.7869 39.881 12.8178 39.8475 12.849C39.8675 12.8699 39.8882 12.9202 39.9028 12.9194C39.9366 12.9029 39.9699 12.8644 40.0033 12.8332C39.9833 12.8123 39.968 12.7837 39.9429 12.7557ZM36.4819 10.2192C36.4819 10.2192 36.5221 10.2684 36.5423 10.2967C36.5557 10.2446 36.5789 10.1919 36.5824 10.133C36.5819 10.111 36.5471 10.0835 36.532 10.0623C36.5137 10.1147 36.5002 10.1668 36.4868 10.2189L36.4819 10.2192ZM34.1002 10.0177C34.0795 9.96742 34.059 9.92448 34.0383 9.87421C34.0244 9.90433 33.9909 9.9355 33.9914 9.9575C34.0024 10.0083 34.028 10.0583 34.0486 10.1086C34.0626 10.0785 34.0816 10.0554 34.1002 10.0177ZM32.9098 12.7692C32.9383 12.7383 32.9718 12.7071 33.0053 12.6759C32.9853 12.655 32.9646 12.6047 32.9499 12.6055C32.9162 12.622 32.8828 12.6605 32.8494 12.6917C32.8694 12.7127 32.8847 12.7412 32.9098 12.7692ZM189.183 6.67707C189.183 6.67707 189.216 6.61656 189.235 6.58617C189.2 6.56602 189.165 6.53121 189.126 6.52598C189.111 6.52677 189.093 6.57916 189.079 6.60195C189.114 6.62943 189.148 6.64958 189.183 6.67707ZM189.181 8.26302C189.181 8.26302 189.221 8.31224 189.241 8.34051C189.255 8.28839 189.278 8.23574 189.282 8.17682C189.281 8.15482 189.246 8.12734 189.231 8.10613C189.213 8.15851 189.199 8.21064 189.181 8.26302ZM31.4892 11.2896C31.4892 11.2896 31.5219 11.2291 31.5408 11.1987C31.5061 11.1786 31.4712 11.1438 31.432 11.1385C31.4174 11.1393 31.3991 11.1917 31.385 11.2145C31.4198 11.242 31.4544 11.2621 31.4892 11.2896ZM29.9644 13.5159C29.9644 13.5159 30.0046 13.5652 30.0248 13.5934C30.0382 13.5413 30.0614 13.4887 30.0649 13.4297C30.0644 13.4077 30.0296 13.3803 30.0145 13.3591C29.9962 13.4114 29.9827 13.4636 29.9644 13.5159ZM28.1379 11.5811C28.1379 11.5811 28.0972 11.5099 28.0825 11.5107C28.0488 11.5272 28.0155 11.5657 27.9821 11.5969C28.0021 11.6178 28.0228 11.6681 28.0374 11.6673C28.0712 11.6508 28.1044 11.6123 28.1379 11.5811ZM22.3193 11.1397C22.3193 11.1397 22.3521 11.0792 22.3709 11.0488C22.3362 11.0287 22.3012 10.9939 22.2621 10.9887C22.2474 10.9895 22.2291 11.0418 22.215 11.0646C22.2498 11.0921 22.2844 11.1123 22.3193 11.1397ZM21.4867 11.6473C21.4867 11.6473 21.5269 11.6965 21.547 11.7248C21.5605 11.6727 21.5837 11.6201 21.5872 11.5611C21.5867 11.5391 21.5518 11.5117 21.5367 11.4904C21.5184 11.5428 21.505 11.5949 21.4867 11.6473ZM21.1905 12.3461C21.1905 12.3461 21.1498 12.2749 21.1352 12.2757C21.1014 12.2922 21.0682 12.3307 21.0347 12.3619C21.0547 12.3829 21.0754 12.4331 21.09 12.4323C21.1238 12.4158 21.1571 12.3773 21.1905 12.3461ZM21.1765 13.6317C21.1765 13.6317 21.2239 13.5704 21.2234 13.5484C21.2124 13.4976 21.1869 13.4476 21.1662 13.3973C21.1522 13.4275 21.1188 13.4586 21.1193 13.4806C21.1303 13.5314 21.1558 13.5814 21.1765 13.6317ZM20.8724 10.6307C20.8724 10.6307 20.9198 10.5694 20.9193 10.5474C20.9084 10.4966 20.8828 10.4466 20.8621 10.3963C20.8482 10.4264 20.8147 10.4576 20.8152 10.4796C20.8262 10.5304 20.8517 10.5804 20.8724 10.6307ZM19.2715 13.9918C19.2715 13.9918 19.3117 14.041 19.3319 14.0693C19.3453 14.0171 19.3686 13.9645 19.3721 13.9056C19.3716 13.8836 19.3368 13.8561 19.3216 13.8349C19.3033 13.8873 19.2898 13.9394 19.2715 13.9918ZM18.4568 13.588C18.4568 13.588 18.4161 13.5168 18.4015 13.5176C18.3677 13.5341 18.3344 13.5726 18.301 13.6038C18.321 13.6247 18.3417 13.675 18.3563 13.6742C18.3901 13.6577 18.4234 13.6192 18.4568 13.588ZM17.5697 10.9122C17.5697 10.9122 17.6099 10.9614 17.6301 10.9897C17.6435 10.9376 17.6666 10.8849 17.6702 10.826C17.6696 10.804 17.6349 10.7765 17.6197 10.7553C17.6014 10.8077 17.588 10.8598 17.5697 10.9122ZM15.9648 13.8917C15.9442 13.8414 15.9236 13.7985 15.9029 13.7482C15.889 13.7783 15.8555 13.8095 15.856 13.8315C15.867 13.8823 15.8925 13.9323 15.9132 13.9826C15.9272 13.9525 15.9462 13.9294 15.9648 13.8917ZM9.82778 11.3017C9.82778 11.3017 9.86797 11.351 9.88815 11.3792C9.90158 11.3271 9.9248 11.2745 9.92831 11.2155C9.9278 11.1936 9.89295 11.1661 9.87781 11.1449C9.85951 11.1972 9.84609 11.2494 9.82778 11.3017ZM7.03886 10.7992C7.03886 10.7992 7.0061 10.8597 6.98729 10.8901C7.02192 10.9103 7.05688 10.9451 7.09605 10.9503C7.11068 10.9495 7.12897 10.8971 7.14308 10.8744C7.10828 10.8469 7.07366 10.8267 7.03903 10.8066L7.03886 10.7992ZM6.97121 11.6692C6.97121 11.6692 7.00396 11.6087 7.02278 11.5783C6.98814 11.5582 6.95318 11.5234 6.91401 11.5182C6.89939 11.5189 6.88109 11.5713 6.86698 11.5941C6.90179 11.6216 6.9364 11.6418 6.97121 11.6692ZM5.80117 11.5196C5.80117 11.5196 5.84136 11.5689 5.86154 11.5971C5.87497 11.545 5.8982 11.4924 5.90171 11.4334C5.9012 11.4114 5.86634 11.384 5.85121 11.3627C5.8329 11.4151 5.81948 11.4673 5.80117 11.5196ZM5.57889 11.8253C5.57889 11.8253 5.61164 11.7648 5.63046 11.7344C5.59583 11.7143 5.56086 11.6795 5.52169 11.6743C5.50707 11.675 5.48878 11.7274 5.47466 11.7502C5.50947 11.7777 5.54409 11.7979 5.57889 11.8253ZM278.855 7.05948C278.888 7.21922 278.802 7.5102 278.997 7.49965C279.163 7.49068 279.352 7.4364 279.491 7.31142C279.625 7.18672 279.698 7.20476 279.818 7.32308C280.023 7.51758 280.206 7.4269 280.336 7.11887C280.498 6.74301 280.637 6.86761 280.823 7.0925C281.059 7.38073 281.083 7.35009 281.162 6.77313C281.204 6.49186 281.302 6.49391 281.431 6.59704C281.606 6.73446 281.818 6.83311 281.93 7.04728C282.15 7.46856 282.452 7.2393 282.69 7.38796C282.977 7.5633 283.171 7.51609 283.444 7.3104C283.588 7.20717 283.869 7.52236 284.087 7.65007C284.161 7.69011 284.275 7.77937 284.304 7.74112C284.536 7.42756 284.719 7.57179 284.897 7.84119C285.023 8.03258 285.11 8.00583 285.283 7.86435C285.498 7.6765 285.743 7.51639 286.049 7.64669C286.315 7.7571 286.604 7.38905 286.905 7.52694C287.001 7.25009 287.1 7.53105 287.178 7.51217C287.421 7.46965 287.647 7.75108 287.91 7.47993C288.124 7.26275 288.403 7.50462 288.602 7.67005C288.806 7.83521 288.959 7.91503 289.139 7.66303C289.162 7.62505 289.211 7.62241 289.245 7.6059C289.35 8.34174 289.572 7.8158 289.76 7.72485C289.833 7.69156 289.93 7.66429 289.984 7.71272C290.149 7.858 290.235 8.19841 290.521 7.91127C290.631 7.80255 290.911 8.08108 291.149 8.05349C291.329 8.0364 291.571 8.14813 291.696 8.25153C291.929 8.44444 292.137 8.33777 292.353 8.37749C292.514 8.40545 292.715 8.43863 292.826 8.58681C293.018 8.8481 293.209 8.69823 293.405 8.72434C293.606 8.75019 293.519 9.01183 293.511 9.28393C293.498 9.35805 293.526 9.31247 293.555 9.28156C293.53 9.24622 293.504 9.21821 293.479 9.18286C293.456 9.22818 293.433 9.28083 293.419 9.33295C293.419 9.34028 293.45 9.37535 293.511 9.29127C293.672 9.06965 293.742 9.55777 293.919 9.21045C294.017 9.01426 294.216 9.16503 294.394 9.25086C294.675 9.38981 295.015 9.54025 295.288 9.07766C295.428 8.8351 295.519 8.94768 295.589 9.25222C295.66 9.57143 295.807 9.59284 296.022 9.39766C296.137 9.28867 296.387 9.34121 296.517 9.46634C296.697 9.64016 296.838 9.83808 297.065 9.73036C297.067 9.81102 297.078 9.88382 297.085 9.96422C296.788 9.99497 296.855 10.1455 296.95 10.4707C297.061 10.8392 296.81 11.3594 296.557 11.4171C296.407 11.4546 296.251 11.4557 296.095 11.4715C295.754 11.5119 295.764 11.5261 295.254 12.0236C295.063 12.2101 294.866 12.5438 294.593 12.1768C294.553 12.1202 294.423 12.2007 294.336 12.2347C293.886 12.4059 293.442 12.6062 292.986 12.7336C292.836 12.7785 292.648 12.6712 292.504 12.5615C292.324 12.417 292.202 13.033 292.001 12.5887C291.914 12.3878 291.674 12.3568 291.514 12.2112C291.39 12.1005 291.286 11.8198 291.168 11.8115C290.889 11.7825 290.547 11.735 290.347 11.9514C290.075 12.2377 289.81 12.1713 289.547 12.1929C288.981 12.2235 288.612 12.2802 288.163 12.7009C287.919 12.927 288.029 12.6127 287.968 12.5279C287.908 12.4431 287.795 12.4052 287.707 12.4173C287.527 12.4417 287.495 12.3113 287.485 12.0842C287.482 11.9669 287.563 11.6762 287.309 11.8661C287.045 12.0713 287.043 12.0053 286.807 11.4968C286.756 11.3895 286.501 11.3372 286.439 11.4213C286.255 11.6882 286.21 11.6393 286.202 11.2873C286.153 11.2973 286.065 11.2947 286.057 11.3319C286.012 11.5178 286.18 11.8318 285.937 11.8816C285.84 11.9015 285.729 11.724 285.624 11.6196C285.424 11.4322 285.1 11.5672 285.011 11.0874C284.755 11.4096 284.482 10.9986 284.202 11.1312C283.985 11.2311 283.714 11.3412 283.473 11.0385C283.412 10.961 283.189 11.0172 283.128 11.1232C282.945 11.4488 282.815 11.2944 282.693 11.0807C282.571 10.8744 282.43 10.9114 282.278 10.8976C282.01 10.8828 281.776 11.145 281.476 11.0291C281.21 10.926 280.906 11.06 280.618 11.2958C280.369 11.5075 280.035 11.2025 279.76 11.1293C279.47 11.0495 279.206 10.8215 278.877 10.9128C278.663 10.9757 278.433 10.9221 278.207 10.8829C278.016 10.8492 277.822 10.6982 277.642 10.73C277.302 10.7924 276.974 10.9717 276.635 11.0488C276.392 11.106 276.158 11.1406 275.926 10.8228C275.71 10.5262 275.4 10.6384 275.161 10.8716C275.037 10.9957 274.952 10.9196 274.84 10.9183C274.054 10.9094 273.296 10.4292 272.499 10.5751C272.397 10.5953 272.249 10.5372 272.198 10.6208C271.911 11.1062 271.61 10.77 271.316 10.7125C271.101 10.6728 270.909 10.4115 270.653 10.7484C270.516 10.932 270.207 10.8607 269.977 10.8364C269.889 10.8265 269.792 10.6335 269.73 10.49C269.709 10.4397 269.92 10.2961 269.742 10.1957C269.698 10.1687 269.594 10.3212 269.542 10.4121C269.453 10.5637 269.023 10.9394 268.942 10.8263C268.735 10.5512 268.658 11.0105 268.51 10.9451C268.328 10.8596 268.15 10.7591 267.967 10.6808C267.809 10.6086 267.647 10.5367 267.484 10.494C267.362 10.464 267.224 10.4274 267.113 10.4848C266.723 10.6894 266.332 10.6665 265.926 10.6298C265.49 10.5873 265.043 10.6555 264.616 10.7741C264.33 10.8556 264.27 10.3816 264.192 10.3859C263.831 10.4054 263.442 10.2429 263.1 10.6652C262.991 10.8032 262.745 11.1029 262.558 10.6431C262.517 10.5426 262.272 10.4898 262.22 10.566C262.012 10.8783 261.757 10.826 261.514 10.8612C261.387 10.8754 261.189 11.3927 261.15 10.7487C261.149 10.7194 261.114 10.6846 261.095 10.6783C260.884 10.631 260.708 11.2572 260.451 10.7204C260.267 10.3413 259.975 10.6067 259.731 10.5979C259.052 10.5759 258.377 10.9501 257.696 10.5906C257.636 10.5571 257.555 10.6275 257.487 10.6679C257.435 10.7001 257.359 10.7997 257.334 10.779C256.709 10.1594 256.714 10.1664 255.757 10.556C255.617 10.6149 255.343 10.6151 255.327 10.5425C255.213 10.0494 255.134 10.2299 254.97 10.4958C254.706 10.9285 254.608 10.4786 254.474 10.1849C254.474 10.1702 254.475 10.1995 254.476 10.2362C254.514 10.2121 254.558 10.195 254.591 10.1492C254.6 10.134 254.569 10.0623 254.558 10.0115C254.53 10.0497 254.501 10.088 254.474 10.1775C254.228 10.301 253.94 10.5221 253.738 10.4156C253.52 10.2952 253.492 10.774 253.297 10.5716C253.167 10.4391 252.982 10.4272 252.819 10.3699C252.657 10.3053 252.447 10.3166 252.346 10.1606C252.143 9.84847 252.041 10.5001 251.849 10.2168C251.693 9.99032 251.525 10.1095 251.323 10.2673C251.132 10.4171 250.838 10.3816 250.607 10.3061C250.326 10.2111 250.082 10.2096 249.823 10.3999C249.52 10.6145 249.52 10.5778 249.185 10.2288C249.124 10.166 249.008 10.187 248.926 10.2208C248.785 10.2725 248.61 10.4802 248.525 10.404C248.276 10.1899 248.051 9.97446 247.775 10.2757C247.533 9.96576 247.245 10.1722 246.981 10.1205C246.652 10.0502 246.33 9.84734 246.032 10.2379C245.659 9.97173 245.25 10.1921 244.875 10.0362C244.762 9.99094 244.738 10.0216 244.652 10.085C244.421 10.2443 244.169 10.324 243.966 9.96794C243.961 9.96087 243.325 9.90717 243.315 9.91503C243.229 9.97844 243.081 10.1113 243.07 10.0898C242.845 9.61746 242.68 10.0889 242.496 10.1723C242.366 10.2307 241.518 10.2986 241.431 10.1344C241.228 9.77102 240.977 9.90206 240.728 9.88619C240.327 9.85649 239.942 10.1196 239.522 9.90001C239.354 9.81366 239.117 10.2964 238.893 9.91205C238.737 10.3316 238.416 9.76898 238.259 10.1519C238.051 9.80343 237.788 10.0306 237.509 10.0163C237.499 10.0168 237.519 10.0158 237.543 10.0144C237.527 9.95658 237.516 9.89111 237.49 9.8411C237.48 9.82696 237.433 9.87359 237.399 9.89011C237.424 9.93278 237.45 9.97546 237.509 10.0163C237.517 10.3389 237.404 10.3157 237.259 10.1913C237.2 10.1432 237.14 10.1097 237.081 10.0688C236.951 9.93637 236.829 9.73739 236.686 9.67905C236.406 9.57676 236.09 9.84348 235.823 9.5055C235.616 9.81774 235.285 9.67409 235.086 9.91982C234.896 10.1503 234.653 10.1782 234.523 10.0751C234.349 9.93032 234.192 9.88743 234.023 9.94799C233.785 10.0342 233.635 9.87351 233.479 9.65437C233.454 9.61903 233.366 9.64578 233.333 9.69162C233.097 10.0054 233.102 10.0125 233.02 9.6645C232.939 9.32383 232.839 9.23378 232.582 9.48267C232.276 9.77819 232.027 9.77697 231.779 9.38661C231.662 9.20203 231.633 9.40919 231.561 9.44981C231.45 9.5072 231.323 9.49207 231.201 9.50599C231.228 9.39442 231.249 9.28311 231.276 9.17154C231.105 9.15877 230.928 9.10961 230.763 9.14058C230.559 9.17365 230.488 9.06736 230.491 8.77352C230.487 8.60487 230.495 8.32544 230.302 8.62956C230.189 8.81188 230.036 8.94497 229.898 9.08461C229.855 9.12365 229.772 9.15746 229.742 9.12238C229.503 8.89307 229.472 9.04157 229.422 9.3967C229.372 9.76649 229.171 9.74798 228.981 9.56002C228.962 9.34816 228.997 8.97183 228.766 9.13848C228.44 9.36906 228.122 9.11463 227.807 9.21977C227.739 9.24546 227.606 9.20859 227.601 9.17219C227.487 8.4882 227.064 8.76072 226.94 8.89223C226.621 9.23254 226.41 8.95032 226.153 8.82471C225.95 8.72554 225.77 8.54439 225.671 9.11507C225.598 9.54484 225.396 9.03451 225.24 9.03562C224.952 9.02919 225.187 8.84762 225.194 8.72243C225.204 8.54566 225.171 8.36393 225.152 8.1814C225.08 8.23669 224.975 8.35981 224.945 8.33207C224.79 8.17159 224.864 7.77848 225.057 7.66527C225.144 7.61653 225.294 7.56436 225.297 7.4981C225.316 7.2768 225.282 7.04374 225.266 6.80963C225.218 6.83426 225.15 6.83795 225.132 6.89034C225.053 7.0708 224.997 7.4042 224.91 7.42361C224.667 7.46614 224.696 7.67013 224.711 7.90424C224.72 8.09463 224.774 8.3193 224.724 8.47619C224.652 8.71505 224.51 8.89894 224.397 9.11059C224.306 8.96135 224.215 8.80478 224.123 8.65555C224.002 8.4639 223.88 8.26491 223.744 8.10339C223.594 7.92065 223.565 7.76066 223.707 7.53277C223.753 7.44947 224.111 7.07039 224.188 7.0515C224.456 6.993 224.291 6.85505 224.21 6.73462C224.41 6.50356 224.615 6.27957 224.819 6.06292C224.819 6.06292 224.915 6.19722 224.937 6.28416C225.043 6.66751 225.333 6.50503 225.349 6.39399C225.427 5.93462 225.516 5.9812 225.698 6.26501C225.754 6.35743 225.877 6.39483 225.969 6.38248C226.251 6.34519 226.434 6.43075 226.537 6.89503C226.587 7.11996 226.645 6.91856 226.676 6.76272C226.706 6.59956 226.745 6.59745 226.823 6.79147C226.891 6.97136 226.902 7.02949 226.989 6.8045C227.136 6.40743 227.194 6.38961 227.279 6.66402C227.369 6.98217 227.442 6.98555 227.599 6.80086C227.713 6.66988 227.827 6.52423 227.957 6.44378C228.024 6.40342 228.202 6.47458 228.202 6.49658C228.213 7.15678 228.71 6.51314 228.775 6.99419C228.99 6.38785 229.25 7.07126 229.496 6.94049C229.651 6.85872 229.621 7.03655 229.546 7.18742C229.509 7.27019 229.532 7.41579 229.5 7.49829C229.421 7.68609 229.263 7.83412 229.44 8.07419C229.515 7.93798 229.604 7.80832 229.664 7.65824C229.724 7.50815 229.754 7.32299 229.799 7.15904C229.826 7.06213 229.842 6.89976 229.886 6.89005C230.239 6.76814 230.603 6.6677 230.962 6.56752C230.976 6.56673 231.004 6.69006 230.983 6.86003C230.97 6.93415 230.998 6.88857 231.027 6.85766C231.002 6.82231 230.977 6.7943 230.951 6.75896C230.928 6.80427 230.905 6.85692 230.892 6.90904C230.892 6.91637 230.922 6.95145 230.983 6.86736C231.263 6.71275 231.477 6.4809 231.75 6.65704C231.859 6.73189 232.089 6.78549 232.107 6.29995C232.12 6.01293 232.266 6.38684 232.373 6.38837C232.661 6.3948 232.754 6.61003 232.593 7.01522C232.574 7.06028 232.655 7.18804 232.691 7.27419C232.763 7.1969 232.874 7.13951 232.891 7.04313C233.009 6.45673 233.115 6.3996 233.551 6.44212C233.957 6.47888 234.369 6.39047 234.778 6.34631C235.252 6.2962 235.77 6.44928 236.331 6.80557C236.376 6.83252 237.059 6.82492 237.128 6.82856C237.304 6.84106 237.551 6.99653 237.646 6.87393C237.836 6.63607 238.032 6.68418 238.222 6.67389C238.412 6.6636 238.627 6.46842 238.809 6.74489C238.815 6.75929 238.901 6.68122 238.929 6.62831C238.966 6.55287 238.983 6.44916 239.006 6.35985C239.165 6.52006 239.265 6.81568 239.523 6.77237C239.659 6.75032 239.71 6.42452 239.955 6.6609C240.194 6.89022 240.568 6.80391 240.886 6.8381C241.077 6.85714 241.257 7.04562 241.461 6.79964C241.561 6.67678 241.763 6.76861 241.913 6.72377C242.112 6.66163 242.139 7.39436 242.445 6.93726C242.559 6.76961 242.839 6.87923 243.043 6.83149C243.262 6.78296 243.448 6.8096 243.591 7.09551C243.617 7.14552 243.687 7.22249 243.701 7.20703C244.059 6.84262 244.349 7.37753 244.686 7.37399C245.184 7.36908 245.688 7.01142 246.181 7.41792C246.652 6.89319 247.21 7.17136 247.724 7.03341C247.966 6.96889 248.224 6.90358 248.427 7.26699C248.488 7.37381 248.654 7.35018 248.776 7.37292C249.036 7.42493 249.194 6.85842 249.533 7.15578C249.722 7.32174 250.022 7.2174 250.271 7.20394C250.554 7.18864 250.844 7.08483 251.118 7.12871C251.408 7.17914 251.689 7.31809 251.995 7.25748C252.141 7.22757 252.365 7.42101 252.441 7.32147C252.63 7.08361 252.833 7.19744 253.022 7.13582C253.197 7.08233 253.382 7.08697 253.562 7.06988C253.713 7.05437 253.887 6.97155 253.872 7.3615C253.921 7.35886 253.975 7.37063 254.023 7.37532C254.03 6.80232 254.186 6.99946 254.395 7.17169C254.529 7.28923 254.726 7.13909 254.882 7.36556C254.973 7.48546 255.121 7.35263 255.105 7.08185C255.104 7.05252 255.205 6.96632 255.225 6.97993C255.31 7.06344 255.4 7.16135 255.461 7.2755C255.635 7.62583 255.883 7.56105 256.09 7.47639C257.014 7.09604 257.16 7.10278 257.96 7.67625C258.019 7.71708 258.122 7.74087 258.165 7.6945C258.265 7.57898 258.339 7.41344 258.423 7.26204C258.485 7.39086 258.547 7.51968 258.608 7.6485C258.608 7.6485 258.651 7.62413 258.656 7.6092C258.805 6.89631 259.065 7.14656 259.396 7.32687C259.619 7.44698 259.935 7.40051 260.156 7.24905C260.593 6.95374 260.974 7.15341 261.383 7.32216C261.457 7.35487 261.552 7.23961 261.639 7.21286C261.687 7.20289 261.781 7.22721 261.781 7.24187C261.801 7.87221 262.298 7.21391 262.358 7.71722C262.67 7.24519 263.117 7.59542 263.433 7.34336C263.889 6.98833 264.344 7.46294 264.777 7.21923C265.057 7.49776 265.299 6.97809 265.576 7.12464C265.694 7.19163 265.832 7.23557 265.954 7.22165C266.071 7.21532 266.181 7.11393 266.292 7.0492C266.402 6.98447 266.511 6.84642 266.619 6.84794C266.682 6.84452 266.739 7.17184 266.802 7.17575C267.095 7.18925 267.41 7.28969 267.676 6.99628C267.843 6.8184 267.809 7.04049 267.831 7.14942C267.882 7.42569 267.942 7.29027 268.017 7.16873C268.045 7.12315 268.098 7.09092 268.147 7.08095C268.428 7.00699 268.436 7.75544 268.617 7.56944C268.813 7.36797 268.974 7.18302 269.214 7.19209C269.292 7.18787 269.393 7.12367 269.443 7.1797C269.618 7.37578 269.826 7.51135 269.977 7.2536C270.169 6.92748 270.24 7.47426 270.432 7.31706C270.595 7.18344 270.835 7.25117 271.04 7.22542C271.089 7.22279 271.162 7.22616 271.185 7.18085C271.362 6.78953 271.507 6.96519 271.679 7.1982C271.785 7.34665 271.919 7.46418 272.044 7.5749C272.168 7.68563 272.214 7.12519 272.402 7.46739C272.433 7.52447 272.7 7.26039 272.746 7.32401C272.912 7.55728 273.085 7.44513 273.251 7.44349C273.403 7.44998 273.63 7.34959 273.686 7.46401C273.844 7.75647 273.931 7.28191 274.027 7.44555C274.245 7.80084 274.504 7.16279 274.717 7.51834C274.993 7.18774 275.305 7.60401 275.594 7.4342C275.642 7.40223 275.751 7.47708 275.787 7.55589C275.972 7.93503 276.1 7.78125 276.229 7.48056C276.248 7.43551 276.325 7.37996 276.33 7.38703C276.565 7.85152 276.711 7.21221 276.908 7.28232C276.947 7.29487 276.983 7.37368 277.004 7.43129C277.041 7.52477 277.067 7.6261 277.099 7.71985C277.121 7.61587 277.128 7.50535 277.165 7.41525C277.188 7.3626 277.251 7.35184 277.3 7.32721C277.317 7.84756 277.459 7.46542 277.591 7.4583C277.859 7.44379 278.086 6.92491 278.403 7.31892C278.463 7.39641 278.701 7.15592 278.855 7.05948ZM251.952 7.70034C251.952 7.70034 251.996 7.69796 252.02 7.69665C252.004 7.63878 251.993 7.57331 251.962 7.52356C251.952 7.50943 251.904 7.55606 251.871 7.57257C251.896 7.61525 251.921 7.65792 252.164 7.81365C252.139 7.77097 252.113 7.72829 252.083 7.68588C252.06 7.72386 252.041 7.76158 252.017 7.79956C252.048 7.83465 252.083 7.86946 252.117 7.88961C252.122 7.88935 252.145 7.84404 251.947 7.7006L251.952 7.70034ZM226.705 7.59078C226.705 7.59078 226.706 7.65677 226.707 7.69344C226.746 7.66933 226.789 7.65229 226.822 7.60645C226.832 7.59126 226.801 7.51951 226.79 7.46871C226.762 7.50695 226.733 7.5452 226.629 7.91057C226.658 7.87232 226.686 7.83407 226.714 7.7885C226.689 7.75315 226.664 7.72514 226.639 7.6898C226.615 7.73511 226.592 7.78776 226.579 7.83988C226.579 7.84721 226.609 7.88229 226.705 7.58345L226.705 7.59078ZM227.607 8.79744C227.741 8.88564 227.836 8.98328 227.85 8.96049C227.958 8.79311 228.051 8.60452 228.139 8.40886C228.149 8.39367 228.088 8.30151 228.057 8.24443C227.925 8.4058 227.792 8.5745 227.612 8.79717L227.607 8.79744ZM237.867 9.02781C238.031 8.96018 238.144 8.34472 238.042 8.15201C238.026 8.12347 237.996 8.07373 237.986 8.08159C237.852 8.19163 238.005 8.67527 237.705 8.57404C237.707 8.64736 237.689 8.74374 237.71 8.80135C237.752 8.89456 237.816 8.95712 237.867 9.02781ZM237.019 8.89013C237.058 8.87336 237.174 8.83036 237.29 8.78737C237.21 8.46869 237.044 8.71257 236.922 8.67517C236.823 8.65111 236.722 8.68598 236.62 8.70619C236.6 8.70724 236.567 8.76775 236.573 8.78215C236.584 8.84028 236.61 8.92695 236.635 8.92563C236.737 8.92743 236.839 8.91456 237.019 8.89013ZM276.909 10.263C277.025 10.4036 277.096 10.5246 277.12 10.5086C277.192 10.4607 277.253 10.3619 277.295 10.2569C277.304 10.2343 277.212 10.0558 277.173 10.0579C277.1 10.0618 277.034 10.1609 276.909 10.2557L276.909 10.263ZM226.198 8.02203C226.298 7.9505 226.337 7.91906 226.38 7.89469C226.304 7.77399 226.228 7.65329 226.157 7.53233C226.134 7.59231 226.087 7.66828 226.098 7.71175C226.12 7.82068 226.166 7.92096 226.202 8.02177L226.198 8.02203ZM228.116 7.39696C228.068 7.24535 228.048 7.18775 228.031 7.12254C227.951 7.23702 227.871 7.35149 227.79 7.45863C227.83 7.49318 227.881 7.56387 227.909 7.54763C227.982 7.51434 228.049 7.44465 228.116 7.38963L228.116 7.39696ZM284.685 8.16837C284.66 8.15502 284.606 8.12859 284.546 8.09509C284.533 8.16188 284.496 8.23732 284.507 8.28812C284.523 8.36065 284.578 8.41641 284.614 8.48055C284.627 8.41377 284.645 8.34672 284.685 8.16837ZM273.114 8.91191C273.123 8.87472 273.141 8.79301 273.163 8.7037C273.119 8.68407 273.069 8.62805 273.035 8.64456C272.987 8.6692 272.95 8.75197 272.907 8.80567C272.951 8.82529 272.996 8.85225 273.114 8.91191ZM242.341 8.34517C242.35 8.30798 242.368 8.22627 242.39 8.13696C242.346 8.11734 242.296 8.06131 242.262 8.07783C242.214 8.10246 242.177 8.18523 242.134 8.23893C242.178 8.25856 242.223 8.28551 242.341 8.34517ZM238.163 7.08087C238.122 7.00233 238.096 6.90832 238.076 6.90938C238.008 6.9204 237.946 6.96783 237.878 7.00085C237.899 7.05112 237.921 7.13806 237.945 7.13674C238.013 7.13305 238.081 7.10002 238.163 7.07354L238.163 7.08087ZM238.094 9.36057C238.152 9.53365 238.173 9.59126 238.194 9.6562C238.227 9.58836 238.269 9.51999 238.282 9.44587C238.29 9.39402 238.245 9.32307 238.224 9.25813C238.171 9.29769 238.118 9.33726 238.094 9.36057ZM232.513 8.20891C232.565 8.14734 232.628 8.10725 232.627 8.07792C232.62 7.97553 232.588 7.88179 232.566 7.78019C232.533 7.81137 232.475 7.84386 232.476 7.88052C232.478 7.98318 232.5 8.08478 232.518 8.20864L232.513 8.20891ZM231.627 7.27303C231.685 7.44611 231.706 7.50371 231.727 7.56865C231.759 7.50081 231.802 7.43245 231.815 7.35833C231.823 7.30647 231.778 7.23552 231.757 7.17792C231.704 7.21748 231.651 7.25705 231.627 7.28036L231.627 7.27303ZM227.033 7.84468C227.116 7.85486 227.19 7.8729 227.253 7.86213C227.272 7.86108 227.29 7.7647 227.303 7.71258C227.234 7.69428 227.165 7.66131 227.097 7.665C227.078 7.66605 227.06 7.76243 227.028 7.85227L227.033 7.84468ZM225.788 7.22188C225.764 7.20854 225.709 7.18211 225.65 7.14861C225.637 7.2154 225.6 7.29083 225.611 7.34163C225.627 7.41417 225.682 7.46993 225.718 7.53408C225.731 7.46729 225.749 7.40024 225.788 7.22188ZM295.084 10.4029C295.084 10.4029 295.132 10.3416 295.131 10.3196C295.12 10.2688 295.095 10.2188 295.074 10.1685C295.06 10.1986 295.026 10.2298 295.027 10.2518C295.038 10.3026 295.063 10.3526 295.084 10.4029ZM294.622 10.8831C294.655 10.8519 294.684 10.821 294.717 10.7898C294.697 10.7689 294.677 10.7186 294.662 10.7194C294.628 10.7359 294.595 10.7744 294.562 10.8056C294.582 10.8265 294.597 10.8551 294.622 10.8831ZM292.637 11.5705C292.67 11.5393 292.699 11.5084 292.732 11.4772C292.712 11.4563 292.691 11.406 292.677 11.4068C292.643 11.4233 292.61 11.4618 292.576 11.493C292.596 11.5139 292.612 11.5425 292.637 11.5705ZM285.947 8.10738C285.981 8.0762 286.009 8.04529 286.043 8.01411C286.023 7.99317 286.002 7.94289 285.987 7.94369C285.954 7.9602 285.92 7.99871 285.887 8.02989C285.907 8.05083 285.922 8.07937 285.947 8.10738ZM282.48 8.67675C282.46 8.62648 282.439 8.58354 282.418 8.53327C282.405 8.56339 282.371 8.59456 282.372 8.61656C282.383 8.66736 282.408 8.71737 282.429 8.76765C282.443 8.73752 282.462 8.71447 282.48 8.67675ZM281.763 7.40141C281.763 7.40141 281.795 7.3409 281.814 7.31052C281.78 7.29036 281.745 7.25555 281.705 7.25033C281.691 7.25112 281.672 7.3035 281.658 7.32629C281.693 7.35378 281.728 7.37392 281.763 7.40141ZM265.28 8.47684C265.28 8.47684 265.32 8.52606 265.341 8.55434C265.354 8.50222 265.377 8.44957 265.381 8.39065C265.38 8.36865 265.345 8.34117 265.33 8.31996C265.312 8.37234 265.298 8.42446 265.28 8.47684ZM264.957 8.21535C264.978 8.26563 264.998 8.30857 265.019 8.35884C265.033 8.32872 265.066 8.29754 265.066 8.27554C265.055 8.22474 265.029 8.17473 265.008 8.12446C264.995 8.15458 264.975 8.17764 264.957 8.21535ZM257.755 9.59618C257.789 9.565 257.817 9.53409 257.851 9.50292C257.831 9.48197 257.81 9.4317 257.795 9.43249C257.762 9.449 257.728 9.48751 257.695 9.51869C257.715 9.53963 257.73 9.56817 257.755 9.59618ZM229.233 7.38055C229.267 7.34937 229.295 7.31846 229.329 7.28728C229.309 7.26634 229.288 7.21607 229.273 7.21686C229.24 7.23337 229.206 7.27188 229.173 7.30305C229.193 7.324 229.208 7.35254 229.233 7.38055ZM232.201 8.83518C232.201 8.83518 232.16 8.76397 232.145 8.76476C232.111 8.78127 232.078 8.81978 232.045 8.85096C232.065 8.8719 232.085 8.92218 232.1 8.92139C232.134 8.90487 232.167 8.86636 232.201 8.83518ZM232.024 7.95638C232.024 7.95638 232.064 8.0056 232.084 8.03388C232.098 7.98176 232.121 7.92911 232.124 7.87019C232.124 7.84819 232.089 7.8207 232.074 7.7995C232.056 7.85188 232.042 7.904 232.029 7.95612L232.024 7.95638ZM232.638 8.75279C232.638 8.75279 232.598 8.70357 232.577 8.67529C232.564 8.72741 232.541 8.78006 232.537 8.83898C232.538 8.86098 232.573 8.88846 232.588 8.90967C232.606 8.85729 232.62 8.80517 232.638 8.75279ZM233.508 9.00673C233.541 8.97555 233.57 8.94464 233.603 8.91346C233.583 8.89252 233.562 8.84225 233.548 8.84304C233.514 8.85955 233.481 8.89806 233.447 8.92924C233.467 8.95018 233.483 8.97872 233.508 9.00673ZM234.122 9.59022C234.122 9.59022 234.162 9.63944 234.182 9.66772C234.195 9.6156 234.219 9.56295 234.222 9.50402C234.222 9.48203 234.187 9.45455 234.172 9.43334C234.153 9.48572 234.14 9.53784 234.122 9.59022ZM235.507 6.60057C235.507 6.60057 235.466 6.52936 235.451 6.53015C235.418 6.54666 235.384 6.58517 235.351 6.61635C235.371 6.63729 235.392 6.68756 235.406 6.68677C235.44 6.67026 235.473 6.63175 235.507 6.60057ZM236.439 9.33267C236.439 9.33267 236.479 9.38189 236.499 9.41017C236.513 9.35805 236.536 9.3054 236.54 9.24647C236.539 9.22448 236.504 9.197 236.489 9.17579C236.471 9.22817 236.457 9.28029 236.439 9.33267ZM237.032 9.2345C237.032 9.2345 236.991 9.16329 236.977 9.16408C236.943 9.18059 236.91 9.2191 236.876 9.25027C236.896 9.27122 236.917 9.32149 236.932 9.3207C236.965 9.30419 236.999 9.26568 237.032 9.2345ZM237.433 7.35535C237.433 7.35535 237.473 7.40457 237.493 7.43284C237.506 7.38072 237.53 7.32807 237.533 7.26915C237.533 7.24715 237.498 7.21967 237.483 7.19846C237.464 7.25085 237.451 7.30297 237.438 7.35509L237.433 7.35535ZM244.256 9.25472C244.256 9.25472 244.304 9.19343 244.303 9.17143C244.292 9.12063 244.267 9.07062 244.246 9.02035C244.232 9.05047 244.199 9.08164 244.199 9.10364C244.21 9.15444 244.236 9.20445 244.256 9.25472ZM244.999 9.72111C245.02 9.77138 245.041 9.81432 245.061 9.86459C245.075 9.83447 245.109 9.80329 245.108 9.7813C245.097 9.7305 245.072 9.68049 245.051 9.63021C245.037 9.66034 245.018 9.68339 244.999 9.72111ZM250.127 7.52009C250.127 7.52009 250.087 7.47087 250.067 7.4426C250.053 7.49472 250.03 7.54736 250.026 7.60629C250.027 7.62829 250.062 7.65577 250.077 7.67697C250.095 7.62459 250.109 7.57247 250.127 7.52009ZM250.862 8.25857C250.895 8.22739 250.924 8.19648 250.957 8.1653C250.937 8.14436 250.916 8.09409 250.902 8.09488C250.868 8.11139 250.835 8.1499 250.801 8.18108C250.821 8.20202 250.837 8.23056 250.862 8.25857ZM251.185 8.52006C251.185 8.52006 251.152 8.58057 251.133 8.61096C251.168 8.63111 251.203 8.66592 251.242 8.67115C251.257 8.67036 251.275 8.61797 251.289 8.59518C251.254 8.56769 251.22 8.54755 251.185 8.52006ZM253.865 9.3882C253.865 9.3882 253.833 9.4487 253.814 9.47909C253.848 9.49924 253.883 9.53406 253.923 9.53928C253.937 9.53849 253.955 9.4861 253.97 9.46332C253.935 9.43583 253.9 9.41568 253.865 9.3882ZM222.516 6.68683C222.456 6.83691 222.415 6.96394 222.359 7.07709C222.209 7.37151 221.975 7.59708 222.06 8.06974C222.076 8.15694 221.943 8.30365 221.878 8.42466C221.69 8.12645 221.554 8.59632 221.401 8.50184C221.232 8.39349 221.454 8.24936 221.428 8.19202C221.314 7.91919 221.181 7.66941 221.049 7.41962C221.049 7.41962 220.987 7.51104 220.949 7.52049C220.812 7.54254 220.757 7.47944 220.799 7.37441C220.89 7.11983 221.087 6.96236 221.225 7.01364C221.599 7.14024 221.924 7.26215 222.003 6.46496C222.011 6.40577 222.141 6.31066 222.185 6.33761C222.294 6.41247 222.385 6.54704 222.516 6.68683ZM221.36 7.38807C221.327 7.41925 221.298 7.45017 221.265 7.48134C221.285 7.50229 221.306 7.55256 221.32 7.55177C221.354 7.53526 221.387 7.49675 221.421 7.46557C221.401 7.44463 221.385 7.41609 221.36 7.38807ZM217.215 6.92224C217.156 6.6905 217.139 6.56663 217.004 6.83826C216.947 6.94408 216.815 7.12012 216.81 7.11305C216.583 6.81695 216.574 7.04505 216.605 7.3077C216.622 7.4389 216.703 7.552 216.726 7.69026C216.748 7.81386 216.757 7.97491 216.72 8.07968C216.688 8.16952 216.582 8.21199 216.51 8.2746C216.579 8.30024 216.648 8.34054 216.721 8.33659C217.077 8.31733 217.077 8.31733 217.089 7.78806C217.087 7.71474 217.061 7.62073 217.084 7.56075C217.111 7.47851 217.167 7.37269 217.221 7.36246C217.313 7.34278 217.412 7.3815 217.509 7.39089C217.408 7.63133 217.441 7.80574 217.606 7.95835C217.745 8.08295 217.876 8.23741 218.006 8.3772C218.01 8.1567 218.015 7.92886 218.015 7.70861C218.014 7.48104 218.01 7.48864 218.183 7.60406C218.213 7.62447 218.309 7.56054 218.313 7.52361C218.365 6.80132 218.264 6.69661 217.802 6.96391C217.711 7.02025 217.619 7.05459 217.493 7.12011C217.404 7.0662 217.242 7.03091 217.215 6.92224ZM222.613 8.57574C222.639 8.4275 222.679 8.27848 222.69 8.1237C222.716 7.74789 222.914 7.89133 223.036 7.87007C223.216 7.84564 223.337 7.79505 223.281 7.47506C223.219 7.14066 223.307 6.90834 223.452 6.65818C223.522 6.53691 223.769 6.42079 223.592 6.18805C223.537 6.11763 223.326 6.27589 223.201 6.37807C222.919 6.59894 222.626 6.81301 222.65 7.42109C222.652 7.50908 222.547 7.60288 222.485 7.6943C222.443 7.76267 222.396 7.8313 222.353 7.89233C222.447 8.15156 222.53 8.36731 222.613 8.58307L222.613 8.57574ZM220.662 8.02053C220.671 7.94668 220.678 7.85816 220.657 7.80055C220.641 7.74268 220.587 7.70892 220.547 7.67437C220.334 7.51706 219.989 7.62378 220.005 7.03559C219.927 7.03981 219.79 7.0252 219.786 7.06213C219.721 7.42538 219.676 7.80224 219.631 8.17178C219.631 8.17178 219.715 8.21862 219.764 8.22332C220.053 8.25908 220.301 7.5849 220.616 8.11849C220.639 8.08051 220.663 8.05719 220.667 8.02026L220.662 8.02053ZM215.377 8.45339C215.529 8.48921 215.702 8.36239 215.866 8.30209C215.776 7.98394 215.931 7.73326 215.978 7.45905C215.987 7.4072 215.935 7.29251 215.911 7.2865C215.842 7.27553 215.745 7.28814 215.712 7.34864C215.675 7.41675 215.703 7.56208 215.681 7.66605C215.654 7.78496 215.598 7.88345 215.556 7.99581C215.496 7.91098 215.435 7.81883 215.38 7.73374C215.349 7.68399 215.323 7.61932 215.293 7.56224C215.269 7.60022 215.231 7.639 215.227 7.69059C215.219 7.76444 215.231 7.84457 215.241 8.09362C215.257 8.12949 215.303 8.44268 215.382 8.46779L215.377 8.45339ZM59.3011 7.31048C59.3864 7.20307 59.4765 7.08808 59.5618 6.98067C59.5216 6.93145 59.4703 6.8241 59.4463 6.84008C59.3787 6.87311 59.3173 6.9572 59.284 6.99571C59.2881 7.17169 59.2947 7.24475 59.3013 7.31781L59.3011 7.31048ZM175.977 5.91596C175.908 5.89765 175.834 5.84295 175.771 5.86838C175.698 5.89433 175.632 5.97868 175.565 6.0337C175.634 6.05934 175.698 6.09258 175.806 6.13077C175.859 6.06187 175.92 5.98512 175.977 5.91596ZM228.979 9.6556C228.953 9.62026 228.918 9.55612 228.903 9.56424C228.826 9.60512 228.759 9.66748 228.682 9.71569C228.722 9.74291 228.762 9.77013 228.826 9.8107C228.869 9.76433 228.926 9.70984 228.979 9.6556ZM220.605 6.79024C220.593 6.69544 220.551 6.60222 220.52 6.50848C220.497 6.56846 220.455 6.63683 220.456 6.69549C220.458 6.79815 220.5 6.89136 220.532 7.0071C220.568 6.90967 220.616 6.84104 220.609 6.78997L220.605 6.79024ZM218.812 8.20876C218.805 8.10637 218.773 8.01262 218.752 7.91102C218.718 7.9422 218.66 7.9747 218.661 8.01136C218.663 8.11401 218.685 8.21561 218.703 8.33948C218.755 8.27792 218.818 8.23782 218.817 8.20849L218.812 8.20876ZM216.619 6.66818C216.651 6.60034 216.694 6.53197 216.707 6.45786C216.715 6.406 216.67 6.33506 216.649 6.27012C216.596 6.30968 216.543 6.34924 216.519 6.37256C216.577 6.54564 216.598 6.60324 216.619 6.66818ZM214.2 5.93272C214.16 5.89817 214.125 5.81936 214.091 5.82854C214.027 5.8393 213.965 5.90139 213.908 5.94122C213.958 5.98991 214.008 6.03859 214.073 6.10849C214.125 6.03959 214.163 5.99349 214.205 5.93979L214.2 5.93272ZM293.147 8.31983C293.113 8.33634 293.08 8.37485 293.046 8.40603C293.066 8.42697 293.087 8.47725 293.102 8.47646C293.135 8.45994 293.169 8.42143 293.202 8.39025C293.182 8.36931 293.161 8.31904 293.147 8.31983ZM288.893 7.58089C288.893 7.58089 288.94 7.5196 288.94 7.4976C288.929 7.4468 288.903 7.39679 288.883 7.34651C288.869 7.37664 288.85 7.39969 288.831 7.43741C288.852 7.48768 288.872 7.53062 288.893 7.58089ZM278.855 7.05948C278.894 7.03537 278.937 7.01833 278.971 6.97983C278.98 6.96463 278.949 6.89289 278.938 6.84209C278.91 6.88033 278.881 6.91858 278.853 6.95682C278.854 6.99349 278.854 7.02282 278.855 7.05948ZM258.858 11.0269C258.892 11.0471 258.927 11.0819 258.966 11.0871C258.981 11.0863 258.999 11.0339 259.013 11.0112C258.979 10.9837 258.944 10.9635 258.909 10.936C258.89 10.9664 258.876 10.9965 258.858 11.0269ZM181.708 8.86564C181.697 8.81484 181.671 8.76483 181.651 8.71456C181.637 8.74468 181.603 8.77586 181.604 8.79786C181.615 8.84866 181.64 8.89867 181.661 8.94894C181.675 8.91882 181.708 8.88764 181.708 8.86564ZM215.905 6.83161C215.871 6.84813 215.838 6.88664 215.805 6.91781C215.825 6.93875 215.845 6.98903 215.86 6.98824C215.894 6.97172 215.927 6.93322 215.961 6.90204C215.941 6.8811 215.92 6.83082 215.905 6.83161ZM218.197 6.1129C218.163 6.12942 218.13 6.16792 218.097 6.1991C218.117 6.22004 218.137 6.27032 218.152 6.26953C218.186 6.25301 218.219 6.21451 218.252 6.18333C218.232 6.16239 218.212 6.11211 218.197 6.1129ZM159.903 6.91791C159.882 6.85297 159.861 6.79536 159.845 6.73016C159.812 6.798 159.78 6.86584 159.752 6.93342C159.806 6.93052 159.855 6.92788 159.908 6.91764L159.903 6.91791ZM218.938 8.59839C218.905 8.6149 218.871 8.65341 218.838 8.68459C218.858 8.70553 218.879 8.7558 218.893 8.75501C218.927 8.7385 218.96 8.69999 218.994 8.66881C218.974 8.64787 218.953 8.59759 218.938 8.59839ZM218.937 7.50451C218.937 7.50451 218.978 7.57572 218.993 7.57493C219.026 7.55842 219.06 7.51991 219.093 7.48874C219.073 7.46779 219.058 7.43926 219.033 7.41125C218.999 7.44242 218.971 7.47334 218.937 7.50451ZM219.029 6.83144C219.018 6.78064 218.993 6.73063 218.972 6.68036C218.958 6.71048 218.924 6.74166 218.925 6.76365C218.936 6.81446 218.961 6.86447 218.982 6.91474C218.996 6.88462 219.03 6.85344 219.029 6.83144ZM219.379 6.98869C219.345 6.96854 219.31 6.93373 219.27 6.9285C219.256 6.92929 219.238 6.98168 219.223 7.00447C219.258 7.03195 219.293 7.0521 219.328 7.07959C219.346 7.0492 219.36 7.01908 219.379 6.98869ZM210.372 8.57005C210.372 8.57005 210.419 8.50875 210.418 8.48675C210.407 8.43595 210.382 8.38594 210.361 8.33567C210.347 8.36579 210.328 8.38884 210.31 8.42656C210.33 8.47683 210.351 8.51977 210.372 8.57005ZM220.17 8.88414C220.184 8.83202 220.207 8.77938 220.21 8.72045C220.21 8.69845 220.175 8.67097 220.16 8.64976C220.141 8.70215 220.128 8.75427 220.11 8.80665C220.13 8.83492 220.15 8.85587 220.17 8.88414ZM220 7.03585C220.039 7.01174 220.082 6.99471 220.115 6.9562C220.125 6.941 220.094 6.86926 220.083 6.81846C220.055 6.85671 220.026 6.89495 219.998 6.9332C219.999 6.96986 219.999 6.99919 220 7.03585ZM224.235 6.32948C224.248 6.27736 224.272 6.22471 224.275 6.16579C224.275 6.14379 224.24 6.11631 224.225 6.0951C224.206 6.14748 224.193 6.1996 224.175 6.25199C224.195 6.28026 224.215 6.3012 224.235 6.32948ZM140.814 7.15791C140.793 7.09298 140.773 7.03537 140.756 6.97017C140.724 7.03801 140.691 7.10585 140.663 7.17343C140.717 7.17052 140.766 7.16789 140.819 7.15765L140.814 7.15791ZM228.82 6.41175C228.82 6.41175 228.861 6.48297 228.876 6.48218C228.909 6.46566 228.943 6.42716 228.976 6.39598C228.956 6.37504 228.941 6.3465 228.916 6.31848C228.882 6.34966 228.854 6.38057 228.82 6.41175ZM229.398 6.50528C229.365 6.52179 229.331 6.5603 229.298 6.59148C229.318 6.61242 229.339 6.66269 229.353 6.6619C229.387 6.64539 229.42 6.60688 229.454 6.5757C229.434 6.55476 229.413 6.50449 229.398 6.50528ZM231.696 6.4397C231.709 6.38758 231.732 6.33493 231.736 6.27601C231.735 6.25401 231.701 6.22652 231.685 6.20532C231.667 6.2577 231.654 6.30982 231.64 6.36194C231.66 6.39022 231.68 6.41116 231.701 6.43943L231.696 6.4397ZM237.078 10.1498C237.078 10.1498 237.028 10.0864 237.002 10.0511C236.979 10.0964 236.956 10.149 236.942 10.2011C236.943 10.2085 236.973 10.2435 236.993 10.2718C237.021 10.2336 237.05 10.1953 237.078 10.1498ZM197.514 6.02068C197.514 6.02068 197.562 5.95938 197.561 5.93739C197.55 5.88659 197.525 5.83657 197.504 5.7863C197.49 5.81642 197.471 5.83948 197.453 5.8772C197.473 5.92747 197.494 5.97041 197.514 6.02068ZM196.713 8.91268C196.713 8.91268 196.671 8.98839 196.647 9.02637C196.677 9.06145 196.712 9.09626 196.747 9.11641C196.752 9.11615 196.775 9.07083 196.794 9.04045C196.769 8.99777 196.743 8.9551 196.713 8.91268ZM207.521 5.84629C207.56 5.82218 207.603 5.80514 207.636 5.7593C207.646 5.74411 207.615 5.67236 207.604 5.62156C207.575 5.65981 207.547 5.69805 207.519 5.7363C207.52 5.77296 207.52 5.80229 207.521 5.83896L207.521 5.84629ZM187.97 6.14069C187.954 6.08282 187.943 6.01735 187.917 5.96734C187.907 5.9532 187.859 5.99984 187.826 6.01635C187.851 6.05902 187.876 6.1017 187.902 6.14438C187.926 6.14306 187.946 6.14201 187.97 6.14069Z" fill="white"/>
</g>
<defs>
<clipPath id="clip0_13681_47646">
<rect width="300" height="24" fill="white"/>
</clipPath>
</defs>
</svg>
