<svg id="svg-login" viewBox="0 0 24 24" fill="none" xmlns="http://www.w3.org/2000/svg">
<path d="M2 12L16 12M16 12L12.5 9M16 12L12.5 15" stroke="currentColor" stroke-width="1.5" stroke-linecap="round" stroke-linejoin="round"/>
<path d="M9 7C9.01211 4.82497 9.10856 3.64706 9.87694 2.87868C10.7556 2 12.1698 2 14.9983 2L15.9983 2C18.8267 2 20.2409 2 21.1196 2.87868C21.9983 3.75736 21.9983 5.17157 21.9983 8L21.9983 16C21.9983 18.8284 21.9983 20.2426 21.1196 21.1213C20.2409 22 18.8267 22 15.9983 22H14.9983C12.1698 22 10.7556 22 9.87694 21.1213C9.10856 20.3529 9.01211 19.175 9 17" stroke="currentColor" stroke-width="1.5" stroke-linecap="round"/>
</svg>
