<svg id="svg-check--bordered" viewBox="0 0 41 40" fill="none" xmlns="http://www.w3.org/2000/svg">
<path d="M20.5 0C9.45437 0 0.5 8.95437 0.5 20C0.5 31.0462 9.45437 40 20.5 40C31.5462 40 40.5 31.0462 40.5 20C40.5 8.95437 31.5462 0 20.5 0ZM20.5 37.5394C10.8506 37.5394 3 29.6494 3 19.9999C3 10.3505 10.8506 2.49992 20.5 2.49992C30.1494 2.49992 38 10.3506 38 19.9999C38 29.6493 30.1494 37.5394 20.5 37.5394ZM28.4819 12.6819L16.7475 24.49L11.4631 19.2056C10.975 18.7175 10.1837 18.7175 9.69496 19.2056C9.20684 19.6938 9.20684 20.485 9.69496 20.9731L15.8818 27.1606C16.37 27.6481 17.1612 27.6481 17.65 27.1606C17.7062 27.1044 17.7544 27.0431 17.7981 26.9794L30.2506 14.45C30.7381 13.9618 30.7381 13.1706 30.2506 12.6819C29.7619 12.1938 28.9706 12.1938 28.4819 12.6819Z" fill="currentColor"/>
</svg>
