<svg width="121" height="161" viewBox="0 0 121 161" fill="none" xmlns="http://www.w3.org/2000/svg">
<g opacity="0.3">
<path d="M44.4748 13.5418C45.5959 13.707 46.7104 13.9355 47.8112 14.2321C48.3437 14.3747 48.8719 14.5365 49.3973 14.7112C49.5339 14.7569 49.6669 14.8031 49.8035 14.8488C49.9704 14.9043 49.6705 14.8027 49.6722 14.8005C49.7372 14.8279 49.8071 14.8485 49.8738 14.8736C50.1609 14.9785 50.4446 15.0879 50.7267 15.1995C52.8238 16.0404 54.8455 17.1223 56.7546 18.4171C56.9805 18.5715 57.2066 18.7301 57.4327 18.8887C57.6745 19.0583 57.3791 18.8373 57.3507 18.8295C57.402 18.8477 57.4895 18.9314 57.5287 18.9612C57.6634 19.0594 57.7945 19.1578 57.9259 19.2605C58.3803 19.6067 58.8262 19.9641 59.2656 20.3347C60.172 21.0983 61.0431 21.9132 61.8751 22.7756C62.2789 23.1933 62.6724 23.6203 63.0577 24.0628C63.2432 24.2752 63.4271 24.4899 63.6092 24.7069C63.7064 24.8232 63.8036 24.9394 63.8971 25.056C63.9457 25.1142 63.9909 25.1768 64.0412 25.2327C63.9281 25.1012 63.8559 24.9972 64.0108 25.1958C64.7481 26.1338 65.4423 27.1156 66.0893 28.1371C66.7363 29.1587 67.3375 30.2138 67.8839 31.3053C68.0027 31.5428 68.1198 31.7825 68.2352 32.0244C68.2962 32.1524 68.3555 32.2826 68.4165 32.4106C68.447 32.4746 68.4758 32.5408 68.5063 32.6048C68.6357 32.8873 68.3914 32.344 68.4795 32.5405C68.6991 33.0484 68.915 33.5567 69.1168 34.0746C69.9418 36.1906 70.5863 38.3964 71.0472 40.6507C71.0728 40.7757 71.0964 40.8988 71.122 41.0238C71.1338 41.0853 71.142 41.1744 71.1631 41.2371C71.0443 40.8953 71.1179 40.9928 71.1418 41.1201C71.1936 41.4055 71.2418 41.6913 71.2883 41.9794C71.3793 42.5535 71.4612 43.1306 71.5301 43.7068C71.665 44.8449 71.7561 45.9912 71.799 47.1379C71.822 47.7204 71.8324 48.3062 71.8314 48.889C71.8305 49.1626 71.8277 49.4343 71.8215 49.7105C71.8188 49.8549 71.8144 50.0015 71.8101 50.148C71.8078 50.2193 71.8057 50.2946 71.8034 50.3658C71.7959 50.5983 71.8044 50.3282 71.8078 50.2464C71.741 51.4116 71.6608 52.5717 71.5138 53.7297C71.3668 54.8877 71.1811 55.9971 70.946 57.1132C70.8296 57.6628 70.7019 58.2092 70.5629 58.7526C70.4922 59.0327 70.4138 59.3093 70.3393 59.5898C70.3463 59.5578 70.455 59.1865 70.3715 59.4699C70.3567 59.5214 70.3418 59.5729 70.3253 59.6266C70.2791 59.7834 70.2345 59.9378 70.1863 60.0927C69.4706 62.4416 68.536 64.7085 67.3776 66.823C67.3382 66.8934 67.2988 66.9639 67.2593 67.0344C67.1101 67.3051 67.2821 66.9905 67.3072 66.9527C67.2224 67.088 67.1456 67.2308 67.0648 67.3699C66.9011 67.6461 66.7335 67.9186 66.5619 68.1872C66.2188 68.7244 65.8617 69.2483 65.4851 69.7573C65.1084 70.2663 64.7212 70.7576 64.3161 71.2316C64.1401 71.438 63.9584 71.6428 63.7765 71.8435C63.6735 71.9575 63.5668 72.0718 63.4599 72.182C63.422 72.2231 63.351 72.3174 63.2996 72.3493C63.438 72.2654 63.507 72.1421 63.3272 72.3217C62.4729 73.1695 61.5577 73.9436 60.585 74.6125C60.3378 74.7816 60.0904 74.9466 59.8349 75.104C59.725 75.1727 59.6131 75.2394 59.5012 75.3062C59.4514 75.3359 59.2401 75.462 59.439 75.3433C59.6611 75.212 59.3443 75.3918 59.3265 75.4018C58.8183 75.6766 58.297 75.9234 57.7663 76.1419C57.3668 76.3043 56.9607 76.4527 56.5491 76.5766C56.3534 76.6365 56.1574 76.6923 55.9611 76.744C55.9101 76.757 55.8572 76.7682 55.8046 76.7836C55.8174 76.7803 56.1965 76.6949 55.9594 76.7462C55.8408 76.7718 55.726 76.7971 55.6074 76.8228C54.8022 76.9832 53.9839 77.0655 53.1657 77.0705C52.9732 77.0717 52.7841 77.0684 52.5947 77.0609C52.2475 77.0493 52.9597 77.0896 52.6114 77.0614C52.4978 77.0532 52.3843 77.0449 52.2724 77.0345C51.8864 76.9972 51.5029 76.9431 51.1199 76.8701C50.7369 76.7971 50.3431 76.7021 49.9611 76.5914C49.7834 76.5411 49.6051 76.4825 49.4289 76.4258C49.188 76.3458 49.8226 76.5709 49.4632 76.4393C49.3699 76.4041 49.2787 76.3708 49.1871 76.3334C48.4592 76.046 47.7519 75.6857 47.0774 75.2639C46.9222 75.1656 46.7667 75.0631 46.613 74.9583C46.5409 74.9086 46.4725 74.8586 46.4004 74.8089C46.8777 75.1384 46.5389 74.9067 46.4234 74.8193C46.1081 74.5792 45.8047 74.3234 45.5094 74.0522C45.2141 73.7811 44.9508 73.5173 44.6858 73.2287C44.5511 73.0804 44.4162 72.928 44.2866 72.773C44.228 72.7053 44.1749 72.6351 44.1183 72.5694C43.9887 72.4143 44.3773 72.9024 44.2565 72.7403C44.2195 72.6894 44.1789 72.6389 44.1402 72.5903C43.6558 71.9525 43.2216 71.2661 42.8456 70.5388C42.7573 70.3654 42.6707 70.1896 42.5858 70.0117C42.4127 69.6372 42.7127 70.311 42.6057 70.0578C42.559 69.9473 42.5142 69.8387 42.4674 69.7282C42.3142 69.3457 42.1734 68.9558 42.0524 68.5577C41.9314 68.1597 41.8148 67.7194 41.7231 67.2915C41.6987 67.1831 41.6817 67.074 41.6573 66.9656C41.6576 66.9697 41.738 67.4217 41.6933 67.1585C41.6866 67.1174 41.68 67.0762 41.6733 67.0351C41.6344 66.8007 41.6008 66.5636 41.5709 66.3263C41.5191 65.8863 41.4838 65.4427 41.4688 64.9993C41.4605 64.7787 41.4578 64.5597 41.4588 64.3403C41.4596 64.2212 41.4623 64.104 41.4631 63.9849C41.4643 63.9243 41.4675 63.8655 41.4688 63.8048C41.4705 63.907 41.4466 64.2204 41.4635 63.939C41.525 62.9581 41.6576 61.9872 41.8689 61.03C41.9267 60.7761 41.9882 60.5219 42.0537 60.2715C42.1645 59.8519 41.9612 60.585 42.0817 60.1708C42.1279 60.014 42.1758 59.855 42.2257 59.698C42.3971 59.1663 42.5894 58.643 42.8009 58.1306C43.0125 57.6181 43.2555 57.1048 43.5131 56.6131C43.5702 56.5054 43.6256 56.4001 43.6848 56.2943C43.7157 56.2351 43.754 56.1751 43.785 56.1159C43.5867 56.529 43.6549 56.3431 43.7126 56.2437C43.8535 56.0114 43.9923 55.7771 44.1408 55.5482C44.726 54.6398 45.3861 53.7954 46.1025 53.0125C46.1798 52.9281 46.2608 52.8433 46.3381 52.7589C46.3847 52.7107 46.4296 52.6648 46.4761 52.6166C46.626 52.4586 46.2184 52.8723 46.3742 52.72C46.5611 52.5356 46.7516 52.3508 46.9427 52.1744C47.3303 51.8189 47.7302 51.4789 48.1385 51.1549C48.5469 50.8309 48.9466 50.5411 49.3653 50.2578C49.784 49.9746 50.2725 49.735 50.6934 49.4307C50.3095 49.7086 50.6544 49.4552 50.7595 49.3974C50.8593 49.3422 50.961 49.2889 51.0608 49.2337C51.3053 49.1045 51.5538 48.9791 51.8025 48.8578C52.2735 48.6324 52.751 48.421 53.2317 48.228C54.1696 47.8506 55.1304 47.5338 56.0993 47.2788C56.2246 47.2442 56.3502 47.2137 56.4758 47.1832C56.7341 47.1175 56.3997 47.207 56.372 47.2075C56.4274 47.2065 56.5086 47.176 56.5615 47.1648C56.813 47.1081 57.0665 47.0532 57.3223 47.0044C57.8282 46.9052 58.339 46.8222 58.8489 46.7539C59.8468 46.6195 60.8528 46.5469 61.8572 46.5308C62.3622 46.5236 62.8668 46.5352 63.3703 46.5573C63.5393 46.5646 63.1972 46.5463 63.2086 46.5494C63.27 46.5541 63.3332 46.5566 63.3946 46.5613C63.5192 46.5685 63.6441 46.5799 63.7687 46.5871C64.0165 46.608 64.2626 46.631 64.511 46.6602C66.4787 46.8825 68.4103 47.3754 70.3021 48.012C70.4653 48.0678 70.1272 47.9489 70.1405 47.9539C70.1995 47.9756 70.2584 47.9972 70.3174 48.0189C70.4353 48.0622 70.5532 48.1056 70.6711 48.1489C70.9052 48.2379 71.1414 48.3287 71.3741 48.424C71.8396 48.6146 72.3019 48.8139 72.7598 49.0282C73.6564 49.4461 74.5377 49.9113 75.3997 50.416C76.2617 50.9206 77.0769 51.4964 77.9109 52.0516C77.4851 51.7675 77.8426 52.0016 77.9481 52.0795C78.0537 52.1574 78.1516 52.2318 78.2552 52.3078C78.4586 52.4601 78.6607 52.6189 78.8591 52.7779C79.2596 53.0957 79.6533 53.4225 80.0422 53.7602C81.5664 55.0845 82.9919 56.5579 84.2947 58.1534C84.376 58.2544 84.6568 58.6084 84.3248 58.1861C84.3962 58.2776 84.4672 58.365 84.5386 58.4565C84.7097 58.6745 84.8794 58.8988 85.0471 59.1213C85.3522 59.5294 85.6485 59.9446 85.936 60.3668C86.5231 61.2228 87.079 62.1108 87.5994 63.0189C88.1198 63.9269 88.6222 64.8951 89.0768 65.8678C89.127 65.9738 89.1755 66.0821 89.2256 66.1881C89.2541 66.2502 89.2806 66.3103 89.3091 66.3724C89.4012 66.5727 89.1631 66.0394 89.2518 66.2441C89.3602 66.4909 89.4669 66.7399 89.5715 66.987C89.7795 67.4877 89.9764 67.9894 90.1646 68.4981C90.9084 70.5131 91.4774 72.5964 91.898 74.727C91.9414 74.9465 91.834 74.3759 91.8738 74.5956C91.8862 74.6655 91.8983 74.7312 91.9107 74.801C91.9323 74.9222 91.9536 75.0393 91.9732 75.1586C92.0217 75.4485 92.0685 75.7407 92.1099 76.0355C92.1868 76.5692 92.2531 77.108 92.31 77.6457C92.427 78.7666 92.4908 79.8946 92.5102 81.0226C92.5206 81.6355 92.516 82.2457 92.504 82.8566C92.4956 83.1539 92.4798 83.4519 92.4751 83.7489C92.4804 83.2785 92.4732 83.7741 92.4671 83.8958C92.4574 84.0721 92.4481 84.2525 92.4367 84.4311C92.3588 85.6746 92.2361 86.9138 92.0741 88.1463C91.7466 90.6158 91.2522 93.0569 90.6306 95.4535C90.5506 95.7595 90.4686 96.0637 90.3866 96.3678C90.3617 96.4599 90.2924 96.6836 90.4115 96.2757C90.3953 96.3336 90.3807 96.3893 90.3645 96.4472C90.3155 96.6167 90.2684 96.7881 90.2177 96.9599C90.0407 97.5673 89.856 98.1712 89.6637 98.7717C89.2834 99.9577 88.8763 101.129 88.4425 102.291C86.7026 106.949 84.5634 111.409 82.2092 115.711C81.9141 116.248 81.6188 116.78 81.3178 117.312C81.2519 117.426 81.188 117.543 81.1204 117.66C81.0036 117.865 81.2933 117.358 81.1782 117.561C81.1401 117.625 81.1024 117.693 81.0644 117.757C80.9146 118.019 80.7628 118.28 80.6093 118.543C79.8918 119.777 79.1587 121 78.4096 122.207C76.8552 124.716 75.2341 127.172 73.5517 129.573C70.2007 134.361 66.614 138.936 62.8467 143.314C61.0306 145.425 59.1827 147.505 57.2518 149.486C56.9792 149.767 56.8593 150.371 56.8854 150.763C56.9159 151.19 57.1219 151.689 57.4279 151.955C57.734 152.221 58.1485 152.425 58.5591 152.366C58.9955 152.304 59.2946 152.084 59.6172 151.752C63.7222 147.538 67.5603 142.957 71.2054 138.242C74.8505 133.526 78.2361 128.651 81.3593 123.524C84.0864 119.051 86.6416 114.424 88.8393 109.59C91.037 104.756 92.7638 99.9663 93.9919 94.8572C95.2199 89.7481 95.8181 84.6348 95.5675 79.4626C95.3448 74.8621 94.3274 70.2852 92.6216 66.1043C90.9158 61.9235 88.4893 57.9453 85.5547 54.5824C82.6202 51.2194 79.3146 48.5988 75.6424 46.6283C71.9702 44.6578 67.8586 43.3296 63.7564 43.0926C59.4106 42.8427 54.9884 43.571 50.9571 45.4699C46.8935 47.3844 43.3414 50.4186 40.9685 54.6401C38.8847 58.3461 37.8347 63.0962 38.5932 67.4445C39.2625 71.2706 41.1084 74.7159 43.8855 77.0661C46.7139 79.4616 50.1867 80.6613 53.7199 80.5544C58.1033 80.4228 62.2115 78.122 65.4302 74.8535C68.9839 71.2448 71.5436 66.4484 73.0639 61.3602C74.4724 56.6519 75.0897 51.704 74.8857 46.7425C74.6886 41.9307 73.7093 37.1081 71.964 32.7117C70.0359 27.854 67.2246 23.519 63.7285 19.943C60.2865 16.4225 56.1789 13.6447 51.7858 11.927C49.5872 11.0663 47.3252 10.4307 45.0139 10.0921C44.2092 9.9747 43.3259 10.5475 43.2098 11.5147C43.1022 12.4205 43.6067 13.4178 44.4678 13.5466L44.4748 13.5418Z" fill="#4D53E8"/>
<path d="M59.2157 151.912C60.9949 146.067 61.1539 139.756 59.6722 133.811C59.2777 132.227 58.7568 130.688 58.118 129.211C57.9292 128.771 57.7169 128.417 57.3071 128.202C56.9685 128.025 56.4893 127.98 56.1359 128.14C55.4291 128.46 54.803 129.496 55.1826 130.377C55.733 131.654 56.1977 132.977 56.5686 134.333C56.749 134.993 56.906 135.661 57.0448 136.335C57.0681 136.454 57.1517 137.002 57.0787 136.499C57.1016 136.664 57.1375 136.83 57.1641 136.994C57.2224 137.344 57.2733 137.694 57.3205 138.045C57.5041 139.45 57.5963 140.872 57.594 142.292C57.5939 142.628 57.5865 142.965 57.577 143.3C57.5758 143.284 57.5726 143.524 57.569 143.524C57.5907 143.518 57.5881 143.117 57.5705 143.468C57.5592 143.673 57.548 143.879 57.5311 144.083C57.4803 144.773 57.4108 145.46 57.3169 146.143C57.2112 146.92 57.0735 147.688 56.9094 148.451C56.8273 148.833 56.7359 149.213 56.6406 149.589C56.5969 149.756 56.5055 149.955 56.4956 150.127C56.516 149.764 56.5592 149.902 56.5099 150.067C56.4743 150.191 56.4367 150.314 56.3975 150.439C56.2627 150.886 56.1957 151.297 56.3399 151.76C56.4674 152.172 56.7887 152.599 57.1508 152.768C57.8613 153.097 58.9341 152.845 59.216 151.916L59.2157 151.912Z" fill="#4D53E8"/>
<path d="M59.0197 153.344C61.5942 152.13 64.2399 151.107 66.9354 150.291C67.5916 150.092 68.2487 149.906 68.9104 149.731C69.2394 149.644 69.5724 149.561 69.9016 149.478C70.1746 149.411 69.8889 149.482 69.8434 149.492C69.9361 149.469 70.0272 149.448 70.1183 149.427C70.3022 149.383 70.4881 149.34 70.6723 149.3C72.0212 149 73.3811 148.748 74.7465 148.548C76.3171 148.317 77.8947 148.157 79.4747 148.059C80.288 148.01 81 147.088 80.8991 146.168C80.7983 145.248 80.0939 144.512 79.2254 144.565C73.5277 144.911 67.8553 146.131 62.4369 148.159C60.9344 148.722 59.4495 149.349 57.9893 150.038C57.2404 150.392 56.7132 151.359 57.036 152.275C57.333 153.117 58.2134 153.724 59.018 153.346L59.0197 153.344Z" fill="#4D53E8"/>
</g>
</svg>
